<svg id="Calque_1" data-name="Calque 1" xmlns="http://www.w3.org/2000/svg" viewBox="0 0 283.46 75.66"><title>Logo ECL - Q</title><path d="M58,41.19a15.39,15.39,0,0,0,0-6l-2.31.41a18.35,18.35,0,0,0-1.18-4.45l2.18-.87a15.34,15.34,0,0,0-3-5.21l-1.83,1.47a18.81,18.81,0,0,0-3.21-3.22l1.45-1.84a15.2,15.2,0,0,0-5.21-3l-.8,2.2a18.9,18.9,0,0,0-4.44-1.2L40,17.15a15.44,15.44,0,0,0-6,0c0,.18.41,2.31.41,2.31A19,19,0,0,0,30,20.64l-.86-2.17a15.05,15.05,0,0,0-5.21,3l1.51,1.8a19.22,19.22,0,0,0-3.26,3.24L20.3,25.06a15.48,15.48,0,0,0-3,5.21l2.21.8a18.77,18.77,0,0,0-1.2,4.44L16,35.18a15.38,15.38,0,0,0,0,6l2.31-.41a18.48,18.48,0,0,0,1.18,4.45l-2.18.86a15.24,15.24,0,0,0,3,5.21l1.8-1.51a18.51,18.51,0,0,0,3.24,3.26l-1.45,1.84a15.31,15.31,0,0,0,5.21,3l.8-2.21a18.31,18.31,0,0,0,4.44,1.2L34,59.21a15.44,15.44,0,0,0,6,0l-.41-2.31a18.6,18.6,0,0,0,4.45-1.18l.86,2.18a15.34,15.34,0,0,0,5.21-3L48.62,53.1a19,19,0,0,0,3.26-3.26l1.84,1.46a15.22,15.22,0,0,0,3-5.21l-2.2-.8a19.25,19.25,0,0,0,1.19-4.44ZM37,22.45a15.84,15.84,0,0,1,12.88,6.71l-3.62,3.42.8,1.14L37,40.37,27,33.72l.8-1.14-3.63-3.42A15.72,15.72,0,0,1,37,22.45M48.62,48.79h0a15.73,15.73,0,0,1-26-16.95L24,33.1l-.79,1,7.24,4.59-.3-.75,5.56,3.47L33.85,41l-5,4-1.68-.62-.91,2.87-.78-.47-.13,2.06,2-.9-.74-.45,1.25-1.17,1.07.36,7.16-2.83L37,42.29l.86,1.51L45,46.63l1.06-.36,1.26,1.17-.74.45,2,.9-.13-2.06-.78.47-.91-2.87L45.12,45l-4.85-4-2,.42L44,37.77l-.26.78,7.09-4.47-.79-1,1.42-1.26a15.42,15.42,0,0,1,1.33,6.34,15.65,15.65,0,0,1-4.12,10.61" style="fill:#999"/><polygon points="45.11 45.01 36.91 50.48 28.94 45.01 28.94 27.6 45.11 27.6 45.11 45.01" style="fill:#a40f2b"/><path d="M42.19,40.74c-.31-.14-.58-.27-.18-.68s.22-.49-.49-.18a2.53,2.53,0,0,1-1.45.13,2.27,2.27,0,0,1-.1.46,1.56,1.56,0,0,0-.39-1.74.94.94,0,0,1,.33.38l.42-.24a2.27,2.27,0,0,1,1.44,0c.5.07-.05-.35-.31-.61s.24-.4.66-.86-.69,0-.69,0-.5.31-.59-.13-.36-1-.4.06a1.48,1.48,0,0,1-1.09,1.31c-.8-.4-1.79-.53-1.43-.6a2.36,2.36,0,0,0,.6-.16c.25,0,.43.32.41.23a.93.93,0,0,1,0-.29c.16-.15,0-.57,0-.57h-.15l-.45,0c-.15,0-.17-.08-.17-.08s-.18-.35-.05-.39.5.23.71.24.33-.4,0-.76c0,0,.14-.29-.13-.31a2.42,2.42,0,0,1-.94-.17.71.71,0,0,0-.64-.19c-.08,0-.5.2-.76.26l-.19-.07c-.08,0-.22-.15-.62-.26,0,0-.24-.1,0,1.32a4.91,4.91,0,0,1-.46.63,2.16,2.16,0,0,1,.26.47l-.38.51.56.3-.38.6a5.81,5.81,0,0,0,.55.35l-.2.22s.31,1.13-.35,1.43a5.25,5.25,0,0,0-.89.46s-.3.37.1-1.23.16-4.83-1.79-4.63-1.26,1.46-1.06,1.85a2.72,2.72,0,0,1,.33,2.12c-.34,1.05,0,.8.23.27s1.14-1.34.8-2.85c-.3-1.29.2-.93.36-.79,0,0,1.75.9.2,4.17a1.46,1.46,0,0,0,0,1.52s.2.33-.17.86c0,0,.67,1.16.3,1.86s-.1.75.3,1.22a9.15,9.15,0,0,0,1.09,1h1.46s.27-1-.86-1a.93.93,0,0,1-.83-.47s-.36-.46.3-.56c1-.15.86.07.86.07l.93-.76a1,1,0,0,1,.43,1c-.14.7.13.76.56,1.26h2s.3-1-1-.83c0,0-.77-.13-.2-1.09s-.86-1.82-1-2c0,0-.19-.24.14-.27a1.22,1.22,0,0,0,.89-.5s.43.07.49.3a6.65,6.65,0,0,0,.79-1.54l0,.15a1.81,1.81,0,0,1,1.37.77c.49.66.38,0,.38-.35s.35-.2.92-.09.14-.35-.3-.55m-2.62-2-.14-.09.14.09" style="fill:#fff"/><path d="M32,32.44h.81l0-.16H32s0,.1,0,.16m0-.84h.84c0-.07,0-.12,0-.17h-.73v-.05a1.15,1.15,0,0,0-.07.22m0,.29h.94a1.13,1.13,0,0,0,0-.18H32a1.1,1.1,0,0,0,0,.18m0,.27h.92a.81.81,0,0,0,0-.16h-.94a.81.81,0,0,0,0,.16m2.25.23a5.69,5.69,0,0,1-.82-1.67,1.52,1.52,0,0,0-.5-1v0a.6.6,0,0,0,.1-.32.56.56,0,0,0-.21-.44h0s0-.08.15-.16.14-.19,0-.14a.74.74,0,0,0-.28.24.76.76,0,0,0-.26-.06.51.51,0,0,0-.25.06.74.74,0,0,0-.28-.24c-.11-.05,0,.14,0,.14s.16.15.16.16a.53.53,0,0,0-.21.43.59.59,0,0,0,.07.26.15.15,0,0,0,0,.06,1.49,1.49,0,0,0-.51,1,5.73,5.73,0,0,1-.81,1.68s-.25.54.42,0a4.83,4.83,0,0,0,1-1.05v0h.65a4.9,4.9,0,0,0,1,1.07c.68.52.43,0,.43,0m-2.09.32h.61l.06-.16h-.73a1.66,1.66,0,0,0,.06.16m.09.16c.25.41.36.14.44,0s0,0,0-.05h-.48l0,0" style="fill:#fff"/><path d="M36.58,32.44h.81l0-.16h-.88a1.24,1.24,0,0,0,0,.16m0-.84h.85c0-.07,0-.12,0-.17h-.74l0-.05a2.32,2.32,0,0,0-.08.22m0,.29h.94l0-.18h-.89a1.1,1.1,0,0,0,0,.18m0,.27h.92s0-.1,0-.16h-.94a.81.81,0,0,0,0,.16m2.25.23A5.69,5.69,0,0,1,38,30.72a1.49,1.49,0,0,0-.51-1,0,0,0,0,0,0,0,.6.6,0,0,0,.1-.32.56.56,0,0,0-.21-.44h0s0-.08.16-.16c0,0,.14-.19,0-.14a.67.67,0,0,0-.28.24.71.71,0,0,0-.26-.06.51.51,0,0,0-.25.06.67.67,0,0,0-.28-.24c-.11-.05,0,.14,0,.14s.15.15.15.16a.55.55,0,0,0-.2.43.59.59,0,0,0,.07.26.15.15,0,0,0,0,.06,1.49,1.49,0,0,0-.51,1,5.73,5.73,0,0,1-.81,1.68s-.26.54.43,0a5.25,5.25,0,0,0,1-1.05,0,0,0,0,1,0,0v0h.66a4.9,4.9,0,0,0,1,1.07c.68.52.43,0,.43,0m-2.09.32h.61l.06-.16h-.74l.07.16m.09.16c.25.41.36.14.44,0s0,0,0-.05h-.49l0,0" style="fill:#fff"/><path d="M41.23,32.44H42l0-.16h-.89s0,.1,0,.16m0-.84h.84a.69.69,0,0,0,0-.17h-.74l0-.05a1.15,1.15,0,0,0-.07.22m-.05.29h.94l0-.18h-.89a1.1,1.1,0,0,0,0,.18m0,.27h.92a.81.81,0,0,0,0-.16h-.94a.81.81,0,0,0,0,.16m2.25.23a5.69,5.69,0,0,1-.82-1.67,1.46,1.46,0,0,0-.5-1v0a.6.6,0,0,0,.1-.32A.56.56,0,0,0,42,29h0s0-.08.16-.16c0,0,.14-.19,0-.14a.74.74,0,0,0-.28.24.71.71,0,0,0-.26-.06.51.51,0,0,0-.25.06.74.74,0,0,0-.28-.24c-.1-.05,0,.14,0,.14s.16.15.16.16a.53.53,0,0,0-.21.43.59.59,0,0,0,.07.26.15.15,0,0,0,0,.06,1.49,1.49,0,0,0-.51,1,5.73,5.73,0,0,1-.81,1.68s-.26.54.43,0a5.25,5.25,0,0,0,1-1.05l0,0v0H42a5.17,5.17,0,0,0,1,1.07c.68.52.43,0,.43,0m-2.09.32h.61l.06-.16h-.74c0,.05.05.1.07.16m.09.16c.25.41.37.14.44,0a.17.17,0,0,0,0-.05H41.4s0,0,0,0" style="fill:#fff"/><path d="M28.73,27.38V45.12l8.05,5.53.12.08,8.43-5.61V27.38Zm16.17.43v6.06H29.16V27.81Zm-8,22.41L29.16,44.9V34.3H44.9V44.9Z" style="fill:#999"/><path d="M65.42,19.66h7.64v1.43h-6v3.79h5.66V26.3H67.11v4h6.08v1.49H65.42Zm6-3.51-2,2.43H68.31l1.38-2.43Z" style="fill:#999"/><path d="M83.26,22.94a2.31,2.31,0,0,0-2.63-2.1c-2.93,0-3.45,3-3.45,5,0,2.29.65,4.77,3.44,4.77a2.64,2.64,0,0,0,2-.72,2.49,2.49,0,0,0,.59-1.29H85C84.78,31,82.57,32,80.48,32c-4.28,0-5.11-3.77-5.11-6.14,0-2.55,1-6.38,5.33-6.38,1.72,0,4.15.69,4.36,3.45Z" style="fill:#999"/><path d="M88.26,21a5.4,5.4,0,0,1,4.06-1.64c3.37,0,5.49,2.16,5.49,6.29,0,3.24-1.29,6.49-5.62,6.49-4.15,0-5.5-2.94-5.5-6.29A7.14,7.14,0,0,1,88.26,21m1.28,8.6a3.83,3.83,0,0,0,5.39,0,6.65,6.65,0,0,0,1.1-4c0-2.77-.91-4.86-3.69-4.86-3.09,0-3.88,2.48-3.88,5a6.17,6.17,0,0,0,1.08,3.85" style="fill:#999"/><polygon points="100.39 19.66 102.05 19.66 102.05 30.32 107.72 30.32 107.72 31.83 100.39 31.83 100.39 19.66" style="fill:#999"/><polygon points="109.47 19.66 117.11 19.66 117.11 21.09 111.16 21.09 111.16 24.88 116.82 24.88 116.82 26.3 111.16 26.3 111.16 30.34 117.25 30.34 117.25 31.83 109.47 31.83 109.47 19.66" style="fill:#999"/><path d="M77.08,42c-.1-.67-.46-3.36-4.19-3.36-4.68,0-5.51,4.79-5.51,8,0,3.66,1,7.61,5.48,7.61A4.22,4.22,0,0,0,76,53.15a3.81,3.81,0,0,0,.94-2h3c-.41,3.82-3.93,5.4-7.26,5.4-6.84,0-8.15-6-8.15-9.79,0-4.08,1.59-10.19,8.5-10.19,2.74,0,6.61,1.1,7,5.51Z" style="fill:#a40f2b"/><polygon points="83 36.8 95.19 36.8 95.19 39.09 85.69 39.09 85.69 45.14 94.73 45.14 94.73 47.4 85.69 47.4 85.69 53.85 95.4 53.85 95.4 56.22 83 56.22 83 36.8" style="fill:#a40f2b"/><polygon points="99.95 36.8 103.69 36.8 113.23 52.85 113.23 36.8 115.71 36.8 115.71 56.22 112.26 56.22 102.4 39.73 102.4 56.22 99.95 56.22 99.95 36.8" style="fill:#a40f2b"/><polygon points="124.72 56.22 124.72 39.09 118.22 39.09 118.22 36.8 133.9 36.8 133.9 39.09 127.39 39.09 127.39 56.22 124.72 56.22" style="fill:#a40f2b"/><path d="M136.4,36.8h6.94a8.64,8.64,0,0,1,4.46.91,4.58,4.58,0,0,1,2.15,4,4.69,4.69,0,0,1-3.66,4.7c1.86.49,2.69,1.32,3,3.74a26.16,26.16,0,0,0,1.21,6.11h-2.87a33.77,33.77,0,0,1-.89-5.14c-.32-2.82-1-3.63-4.25-3.63h-3.39v8.77H136.4ZM139,45.16h4.25a6.29,6.29,0,0,0,2.55-.43,2.74,2.74,0,0,0,1.32-2.53c0-3.14-2.8-3.14-3.87-3.14H139Z" style="fill:#a40f2b"/><path d="M160.45,36.8h2.87l7.85,19.42h-2.93l-2.09-5.06h-9L155,56.22h-2.77ZM158,49h7.34l-3.58-9.52Z" style="fill:#a40f2b"/><polygon points="173.95 36.8 176.61 36.8 176.61 53.82 185.64 53.82 185.64 56.22 173.95 56.22 173.95 36.8" style="fill:#a40f2b"/><polygon points="188.45 36.8 200.63 36.8 200.63 39.09 191.14 39.09 191.14 45.14 200.17 45.14 200.17 47.4 191.14 47.4 191.14 53.85 200.84 53.85 200.84 56.22 188.45 56.22 188.45 36.8" style="fill:#a40f2b"/><polygon points="206.86 56.22 206.86 36.8 208.61 36.8 208.61 54.6 218.37 54.6 218.37 56.22 206.86 56.22" style="fill:#1d1d1b"/><polygon points="222.73 47.83 215.58 36.8 217.81 36.8 223.75 46.19 229.7 36.8 231.58 36.8 224.48 47.77 224.48 56.22 222.73 56.22 222.73 47.83" style="fill:#1d1d1b"/><path d="M240.24,56.62c-5.56,0-8.66-4.06-8.66-10.11s3.1-10.11,8.66-10.11,8.66,4.06,8.66,10.11-3.09,10.11-8.66,10.11m0-1.61c4.84,0,6.78-4.25,6.78-8.5s-1.94-8.5-6.78-8.5-6.77,4.25-6.77,8.5,1.93,8.5,6.77,8.5" style="fill:#1d1d1b"/><polygon points="253.18 36.8 255.17 36.8 265.88 53.88 265.93 53.88 265.93 36.8 267.68 36.8 267.68 56.22 265.47 56.22 254.98 39.44 254.93 39.44 254.93 56.22 253.18 56.22 253.18 36.8" style="fill:#1d1d1b"/></svg>