<svg id="Calque_1" data-name="Calque 1" xmlns="http://www.w3.org/2000/svg" viewBox="0 0 694 490.71"><title>Logo_INSALyon-pantone</title><path d="M307.4,187.11h1.94v15.7H307.4Z" style="fill:#5f5e5e"/><path d="M311.9,187.11h2.51l5.19,13.1h0v-13.1h1.94v15.7h-2.66l-5-12.71h0v12.71H311.9Z" style="fill:#5f5e5e"/><path d="M330.84,191.18c0-1.65-.59-2.8-2.44-2.8a2.33,2.33,0,0,0-2.59,2.55c0,4.42,7.41,1.79,7.41,7.52,0,3.63-2.66,4.67-4.88,4.67-3.67,0-4.75-1.89-4.75-5.24h1.93c0,1.76.11,3.65,3,3.65a2.65,2.65,0,0,0,2.73-2.77c0-4.44-7.41-1.87-7.41-7.63,0-1.45.61-4.33,4.59-4.33,3,0,4.35,1.5,4.4,4.38Z" style="fill:#5f5e5e"/><path d="M340,202.81H338.1v-14h-3.94v-1.71H344v1.71h-4Z" style="fill:#5f5e5e"/><path d="M345.64,187.11h1.93v15.7h-1.93Z" style="fill:#5f5e5e"/><path d="M355.07,202.81h-1.93v-14H349.2v-1.71H359v1.71h-4Z" style="fill:#5f5e5e"/><path d="M360.59,187.11h1.94v11c0,2.31.74,3.38,2.66,3.38s2.68-1.18,2.68-3.38v-11h1.93v11c0,3-1.53,5-4.61,5s-4.6-1.74-4.6-5Z" style="fill:#5f5e5e"/><path d="M377.24,202.81H375.3v-14h-3.93v-1.71h9.83v1.71h-4Z" style="fill:#5f5e5e"/><path d="M387.93,187.11h2.51l5.18,13.1h.05v-13.1h1.93v15.7h-2.66l-5-12.71h-.05v12.71h-1.93Z" style="fill:#5f5e5e"/><path d="M403.62,187.11h2.6l4.22,15.7h-2l-1.12-4.31h-5l-1.16,4.31h-2Zm-.94,9.81h4.22l-2-7.59h0Z" style="fill:#5f5e5e"/><path d="M415.34,202.81h-1.93v-14h-3.94v-1.71h9.83v1.71h-4Z" style="fill:#5f5e5e"/><path d="M421,187.11h1.93v15.7H421Z" style="fill:#5f5e5e"/><path d="M435.29,195c0,4-.73,8.16-5.06,8.16s-5.06-4.2-5.06-8.16.73-8.16,5.06-8.16S435.29,191,435.29,195Zm-8.1,0c0,3.63.35,6.57,3,6.57s3-2.94,3-6.57-.35-6.58-3-6.58S427.19,191.33,427.19,195Z" style="fill:#5f5e5e"/><path d="M437.58,187.11h2.51l5.19,13.1h0v-13.1h1.93v15.7h-2.66l-5-12.71h-.05v12.71h-1.93Z" style="fill:#5f5e5e"/><path d="M453.28,187.11h2.59l4.22,15.7h-2L457,198.5h-5l-1.16,4.31h-2Zm-.95,9.81h4.22l-2-7.59h0Z" style="fill:#5f5e5e"/><path d="M461.57,187.11h1.94v14h6.37v1.72h-8.31Z" style="fill:#5f5e5e"/><path d="M307.6,211.55h4.2c4.88,0,5.5,3.51,5.5,7.85,0,3.95-1,7.85-5.3,7.85h-4.4Zm1.93,14.11h2c3.34,0,3.71-3.43,3.71-6.24,0-3-.19-6.29-3.71-6.29h-2Z" style="fill:#5f5e5e"/><path d="M319.56,211.55h8.11v1.71h-6.18v4.93h5.83v1.71h-5.83v5.63h6.45v1.72h-8.38Z" style="fill:#5f5e5e"/><path d="M336.49,215.61c0-1.65-.6-2.79-2.44-2.79a2.33,2.33,0,0,0-2.6,2.55c0,4.42,7.41,1.78,7.41,7.52,0,3.63-2.66,4.66-4.88,4.66-3.67,0-4.75-1.89-4.75-5.23h1.94c0,1.76.11,3.65,2.94,3.65a2.65,2.65,0,0,0,2.73-2.77c0-4.44-7.41-1.87-7.41-7.63,0-1.45.61-4.33,4.59-4.33,3,0,4.36,1.49,4.4,4.37Z" style="fill:#5f5e5e"/><path d="M352.76,215.61c0-1.65-.59-2.79-2.44-2.79a2.32,2.32,0,0,0-2.59,2.55c0,4.42,7.41,1.78,7.41,7.52,0,3.63-2.66,4.66-4.88,4.66-3.68,0-4.75-1.89-4.75-5.23h1.93c0,1.76.11,3.65,2.95,3.65a2.65,2.65,0,0,0,2.73-2.77c0-4.44-7.42-1.87-7.42-7.63,0-1.45.62-4.33,4.6-4.33,3,0,4.35,1.49,4.4,4.37Z" style="fill:#5f5e5e"/><path d="M366.69,221.86c-.18,3-1.35,5.69-4.77,5.69-4.47,0-5.06-4.2-5.06-8.15s.72-8.16,5.06-8.16c3.2,0,4.55,1.8,4.63,4.88h-2c0-1.78-.61-3.3-2.61-3.3-2.69,0-3,3-3,6.58s.35,6.57,3,6.57c2.35,0,2.68-2.2,2.74-4.11Z" style="fill:#5f5e5e"/><path d="M368.54,211.55h1.93v15.7h-1.93Z" style="fill:#5f5e5e"/><path d="M373,211.55h8.11v1.71H375v4.93h5.83v1.71H375v5.63h6.44v1.72H373Z" style="fill:#5f5e5e"/><path d="M383.23,211.55h2.51l5.19,13.1h0v-13.1h1.94v15.7h-2.66l-5-12.71h0v12.71h-1.94Z" style="fill:#5f5e5e"/><path d="M405,221.86c-.18,3-1.34,5.69-4.77,5.69-4.47,0-5.06-4.2-5.06-8.15s.73-8.16,5.06-8.16c3.21,0,4.55,1.8,4.64,4.88h-2c0-1.78-.61-3.3-2.61-3.3-2.68,0-3,3-3,6.58s.36,6.57,3,6.57c2.35,0,2.68-2.2,2.75-4.11Z" style="fill:#5f5e5e"/><path d="M406.89,211.55H415v1.71h-6.18v4.93h5.83v1.71h-5.83v5.63h6.45v1.72h-8.38Z" style="fill:#5f5e5e"/><path d="M423.82,215.61c0-1.65-.6-2.79-2.44-2.79a2.33,2.33,0,0,0-2.6,2.55c0,4.42,7.41,1.78,7.41,7.52,0,3.63-2.66,4.66-4.88,4.66-3.67,0-4.75-1.89-4.75-5.23h1.94c0,1.76.11,3.65,2.94,3.65a2.65,2.65,0,0,0,2.73-2.77c0-4.44-7.41-1.87-7.41-7.63,0-1.45.62-4.33,4.6-4.33,3,0,4.35,1.49,4.39,4.37Z" style="fill:#5f5e5e"/><path d="M310.48,236h2.59l4.23,15.7h-2l-1.12-4.31h-5L308,251.68h-2Zm-1,9.81h4.23l-2-7.59h0Z" style="fill:#5f5e5e"/><path d="M318.78,236h4c1.36,0,4.86,0,4.86,4.51a4.22,4.22,0,0,1-4.53,4.55h-2.4v6.64h-1.93Zm1.93,7.48H323c1.41,0,2.59-1,2.59-3.06,0-1.71-.81-2.83-2.72-2.83h-2.18Z" style="fill:#5f5e5e"/><path d="M329.41,236h4c1.36,0,4.86,0,4.86,4.51a4.22,4.22,0,0,1-4.53,4.55h-2.4v6.64h-1.94Zm1.94,7.48h2.31c1.4,0,2.59-1,2.59-3.06,0-1.71-.81-2.83-2.72-2.83h-2.18Z" style="fill:#5f5e5e"/><path d="M340.05,236H342v14h6.37v1.71h-8.31Z" style="fill:#5f5e5e"/><path d="M350,236H352v15.7H350Z" style="fill:#5f5e5e"/><path d="M362,251.2a4.46,4.46,0,0,1-2.7.79c-4.33,0-5.06-4.2-5.06-8.16s.73-8.16,5.06-8.16,5.06,4.2,5.06,8.16c0,2.27-.24,4.62-1.28,6.2l1.58,1.45-1.07,1.15Zm-2.79-2.53,1.08-1.19,1.45,1.32a14.52,14.52,0,0,0,.59-5c0-3.63-.35-6.57-3-6.57s-3,2.94-3,6.57.36,6.58,3,6.58a2.54,2.54,0,0,0,1.43-.38Z" style="fill:#5f5e5e"/><path d="M366.5,236h1.93v11c0,2.31.75,3.39,2.66,3.39,2.07,0,2.68-1.19,2.68-3.39V236h1.94v11c0,3-1.54,5-4.62,5s-4.59-1.74-4.59-5Z" style="fill:#5f5e5e"/><path d="M378.2,236h8.11v1.72h-6.18v4.92H386v1.72h-5.83V250h6.44v1.71H378.2Zm4.53-4h2.15l-2.37,3.12h-1.32Z" style="fill:#5f5e5e"/><path d="M388.39,236h8.12v1.72h-6.18v4.92h5.82v1.72h-5.82V250h6.44v1.71h-8.38Z" style="fill:#5f5e5e"/><path d="M405.32,240.05c0-1.65-.59-2.79-2.44-2.79a2.32,2.32,0,0,0-2.59,2.55c0,4.42,7.41,1.78,7.41,7.52,0,3.63-2.66,4.66-4.89,4.66-3.67,0-4.75-1.89-4.75-5.23H400c0,1.76.11,3.65,2.95,3.65a2.64,2.64,0,0,0,2.72-2.77c0-4.44-7.41-1.87-7.41-7.63,0-1.45.62-4.34,4.6-4.34,3,0,4.35,1.5,4.4,4.38Z" style="fill:#5f5e5e"/><path d="M307.27,260.42H311v12.71h5.35v3h-9Z" style="fill:#5f5e5e"/><path d="M319.6,269.94l-4-9.52h4.09l1.76,5.83h0l1.81-5.83h4l-4,9.52v6.18h-3.7Z" style="fill:#5f5e5e"/><path d="M333.78,276.43c-4.86,0-5.52-3.17-5.52-8.16s.66-8.16,5.52-8.16c5.23,0,5.52,3.81,5.52,8.16S339,276.43,333.78,276.43Zm0-2.47c1.49,0,1.71-1.38,1.71-5.69s-.22-5.7-1.71-5.7-1.67,1.39-1.67,5.7S332.31,274,333.76,274Z" style="fill:#5f5e5e"/><path d="M341.78,260.42H346l3,10.2h0v-10.2h3.43v15.7h-4.18l-3.23-10.82h0v10.82h-3.3Z" style="fill:#5f5e5e"/><rect x="289.77" y="187.1" width="1.75" height="89.03" style="fill:#5f5e5e"/><rect x="44.69" y="187.15" width="23.29" height="89.01" style="fill:#e52713"/><polygon points="100.41 187.15 115.44 242 115.69 242 115.69 187.15 137.48 187.15 137.48 276.16 111.94 276.16 96.41 221.18 96.16 221.18 96.16 276.16 74.37 276.16 74.37 187.15 100.41 187.15" style="fill:#e52713"/><path d="M179.56,210.7a13.38,13.38,0,0,0-1.63-6.79,5.41,5.41,0,0,0-5-2.8c-2.5,0-4.34.81-5.5,2.43a9,9,0,0,0-1.76,5.42,8.87,8.87,0,0,0,2.82,6.92,25.88,25.88,0,0,0,7.07,4.42q4.26,1.88,9.15,3.81a41,41,0,0,1,9.14,5,25.25,25.25,0,0,1,7.07,8.16q2.82,5.06,2.82,13.16,0,14.21-8.14,20.63T172,277.53a63,63,0,0,1-12.84-1.18,23.13,23.13,0,0,1-9.38-4.12,18.46,18.46,0,0,1-5.82-7.67,30.05,30.05,0,0,1-2-11.72v-3.12h22.54v2.13c0,3.83.71,6.5,2.13,8a7.14,7.14,0,0,0,5.51,2.31,6.68,6.68,0,0,0,5.58-2.5,9.65,9.65,0,0,0,1.94-6.11,9.1,9.1,0,0,0-2.7-6.91,23.75,23.75,0,0,0-6.76-4.37c-2.71-1.2-5.66-2.43-8.82-3.68a38.18,38.18,0,0,1-8.84-4.86,24,24,0,0,1-6.76-7.86c-1.8-3.23-2.69-7.48-2.69-12.71q0-13.59,7.26-20.7t22-7.11q15.27,0,22.1,6.55t6.83,20.89H179.56Z" style="fill:#e52713"/><path d="M252.19,187.14l21.79,89H249.19l-2.38-15.58H228.28l-2.39,15.58H201.47l21.42-89Zm-14.77,18.21L231,243.12h13l-6.4-37.77Z" style="fill:#e52713"/><polygon points="258.21 187.1 273.99 187.1 273.99 253.95 258.21 187.1" style="fill:#5f5e5e"/></svg>