<?xml version="1.0" encoding="utf-8"?>
<!-- Generator: Adobe Illustrator 16.0.0, SVG Export Plug-In . SVG Version: 6.00 Build 0)  -->
<!DOCTYPE svg PUBLIC "-//W3C//DTD SVG 1.1//EN" "http://www.w3.org/Graphics/SVG/1.1/DTD/svg11.dtd">
<svg version="1.1" id="Calque_1" xmlns="http://www.w3.org/2000/svg" xmlns:xlink="http://www.w3.org/1999/xlink" x="0px" y="0px"
	 width="637.931px" height="331.035px" viewBox="0 0 637.931 331.035" enable-background="new 0 0 637.931 331.035"
	 xml:space="preserve">
<g>
	<path fill="#009AD7" d="M268.812,112.473v38.469c0,6.029-1.677,10.681-5.033,13.955c-3.357,3.273-7.125,4.908-12.558,4.908
		c-5.433,0-9.299-1.641-12.656-4.928c-3.355-3.286-5.033-7.931-5.033-13.935v-38.469h10.473v38.469c0,3.441,0.676,5.977,2.029,7.608
		c1.351,1.63,2.729,2.446,5.187,2.446c2.532,0,3.837-0.777,5.163-2.33c1.328-1.553,1.993-4.127,1.993-7.724v-38.469H268.812z"/>
	<polygon fill="#009AD7" points="315.417,168.993 304.98,168.993 288.572,132.853 288.351,132.931 288.351,168.993 277.839,168.993 
		277.839,112.473 288.351,112.473 304.762,148.574 304.98,148.496 304.98,112.473 315.417,112.473 	"/>
	<rect x="325.965" y="112.473" fill="#009AD7" width="10.437" height="56.52"/>
	<polygon fill="#009AD7" points="363.183,154.552 363.589,156.726 363.81,156.726 364.216,154.667 373.176,112.473 384.204,112.473 
		369.194,168.991 358.278,168.991 343.269,112.473 354.296,112.473 	"/>
	<polygon fill="#009AD7" points="419.058,144.187 401.025,144.187 401.025,160.18 422.23,160.18 422.23,168.993 390.515,168.993 
		390.515,112.472 422.155,112.472 422.155,121.285 401.025,121.285 401.025,135.375 419.058,135.375 	"/>
	<path fill="#009AD7" d="M440.779,146.517v22.474h-10.474v-56.479h17.518c5.286,0,9.434,1.469,12.445,4.406
		c3.013,2.938,4.519,7.02,4.519,12.247c0,2.95-0.627,5.493-1.882,7.628c-1.254,2.134-3.086,3.837-5.495,5.104
		c2.753,0.984,4.739,2.615,5.957,4.892c1.216,2.277,1.825,5.123,1.825,8.54v3.997c0,1.553,0.172,3.216,0.516,4.989
		c0.344,1.772,0.946,3.061,1.806,3.862v0.814h-10.841c-0.861-0.828-1.402-2.174-1.621-4.035c-0.223-1.864-0.334-3.767-0.334-5.708
		v-3.842c0-2.821-0.547-5.008-1.64-6.561c-1.095-1.552-2.661-2.328-4.703-2.328H440.779z M440.779,137.705h7.007
		c2.139,0,3.761-0.685,4.867-2.058c1.105-1.371,1.66-3.324,1.66-5.862c0-2.586-0.555-4.644-1.66-6.171
		c-1.106-1.526-2.717-2.29-4.83-2.29h-7.044V137.705z"/>
	<path fill="#009AD7" d="M498.175,154.241c0-2.199-0.541-3.941-1.624-5.221c-1.08-1.281-2.985-2.543-5.716-3.785
		c-5.579-2.044-9.766-4.367-12.556-6.967c-2.79-2.601-4.186-6.244-4.186-10.927c0-4.633,1.621-8.405,4.866-11.316
		c3.246-2.912,7.39-4.367,12.429-4.367c5.114,0,9.269,1.624,12.465,4.871c3.195,3.249,4.745,7.344,4.646,12.286l-0.073,0.233h-10.18
		c0-2.587-0.613-4.684-1.842-6.288c-1.23-1.605-2.964-2.407-5.2-2.407c-2.091,0-3.719,0.667-4.887,1.999
		c-1.167,1.333-1.751,3.009-1.751,5.027c0,1.863,0.65,3.396,1.954,4.6s3.564,2.543,6.784,4.017c5.09,1.813,8.919,4.11,11.487,6.891
		c2.568,2.782,3.854,6.541,3.854,11.276c0,4.891-1.549,8.722-4.646,11.492c-3.098,2.768-7.216,4.152-12.354,4.152
		c-5.115,0-9.545-1.572-13.295-4.716c-3.75-3.144-5.563-7.654-5.438-13.529l0.074-0.232h10.214c0,3.493,0.701,6.004,2.103,7.531
		c1.401,1.527,3.515,2.289,6.343,2.289c2.212,0,3.853-0.62,4.923-1.863C497.64,158.046,498.175,156.364,498.175,154.241"/>
	<rect x="517.651" y="112.473" fill="#009AD7" width="10.438" height="56.52"/>
	<polygon fill="#009AD7" points="569.214,121.285 557.12,121.285 557.12,168.993 546.646,168.993 546.646,121.285 534.625,121.285 
		534.625,112.473 569.214,112.473 	"/>
	<path fill="#009AD7" d="M604.696,144.188h-18.033v15.993h21.205v8.81h-31.715v-56.518h31.641v8.812h-21.131v14.091h18.033V144.188z
		 M592.195,98.11h11.026l0.111,0.233l-9.183,10.092l-8.445-0.019L592.195,98.11z"/>
	<path d="M233.495,236.721v-56.52h16.226c5.507,0,10.056,2.195,13.645,6.58c3.588,4.387,5.383,10.035,5.383,16.943v9.512
		c0,6.91-1.795,12.553-5.383,16.924c-3.589,4.375-8.138,6.561-13.645,6.561H233.495z M244.005,189.014v38.896h5.126
		c2.925,0,5.18-1.342,6.768-4.021c1.585-2.682,2.379-6.236,2.379-10.666v-9.598c0-4.404-0.794-7.941-2.379-10.609
		c-1.588-2.668-3.843-4.002-6.768-4.002H244.005z"/>
	<polygon points="306.371,211.917 288.338,211.917 288.338,227.911 309.543,227.911 309.543,236.721 277.828,236.721 
		277.828,180.202 309.468,180.202 309.468,189.014 288.338,189.014 288.338,203.104 306.371,203.104 	"/>
	<polygon points="346.869,227.911 365.167,227.911 365.167,236.723 336.359,236.723 336.359,180.204 346.869,180.204 	"/>
	<polygon points="380.294,204.424 380.516,204.424 389.478,180.202 400.872,180.202 385.531,216.614 385.531,236.721 
		375.059,236.721 375.059,215.915 359.975,180.202 371.445,180.202 	"/>
	<path d="M441.165,216.42c0,6.625-1.71,11.799-5.127,15.525c-3.418,3.727-7.965,5.59-13.645,5.59c-5.678,0-10.214-1.863-13.607-5.59
		c-3.393-3.727-5.089-8.9-5.089-15.525v-15.838c0-6.6,1.696-11.781,5.089-15.547c3.394-3.764,7.915-5.646,13.571-5.646
		c5.654,0,10.202,1.883,13.643,5.646c3.442,3.766,5.165,8.947,5.165,15.547V216.42z M430.728,200.461
		c0-4.049-0.713-7.104-2.14-9.168c-1.426-2.063-3.504-3.094-6.231-3.094c-2.753,0-4.82,1.025-6.195,3.076
		c-1.378,2.049-2.066,5.113-2.066,9.186v15.961c0,4.104,0.702,7.178,2.103,9.227c1.402,2.051,3.466,3.076,6.195,3.076
		c2.704,0,4.77-1.025,6.195-3.076c1.427-2.049,2.14-5.123,2.14-9.227V200.461z"/>
	<polygon points="487.846,236.721 477.409,236.721 461,200.583 460.779,200.661 460.779,236.721 450.268,236.721 450.268,180.202 
		460.779,180.202 477.19,216.303 477.409,216.225 477.409,180.202 487.846,180.202 	"/>
	<rect x="48.376" y="157.65" width="151.084" height="11.335"/>
	<rect x="48.376" y="134.972" fill="#009AD7" width="151.084" height="11.335"/>
	<path d="M203.03,49.885c0,0-0.242-0.44-0.73-0.974c-0.483-0.545-1.702-1.28-2.289-1.856c-0.58-0.599-1.279-1.53-1.62-1.768
		c-0.332-0.248-1.028-1.352-1.351-1.606c-0.359-0.243-0.75-2.047-0.795-2.249c-0.037-0.189-0.18-0.741-0.721-1.026
		c-0.303-0.131-1.138-0.682-1.682-1.115c-0.526-0.444-1.881-1.762-1.881-1.762s-0.356-2.194-0.88-3.356
		c-0.532-1.181-0.745-1.62-0.996-2.058c-0.233-0.446-0.389-0.534-0.518-1.223c0,0-0.739-0.053-1.424,0.386
		c0,0-1.409-1.073-2.816-1.898c-1.42-0.836-3.09-1.707-3.777-1.845c-0.666-0.153-1.582-0.681-1.933-1.025c0,0-1-0.048-1.811,0.088
		c-0.585,0.078-2.515,0.273-3.538,0.428c-1.02,0.136-3.536,0.557-4.113,0.599c-1.213,0.083-1.466,0.178-3.293,0.521
		c0,0-1.446,0.256-1.939,0.446c-0.493,0.195-2.054,0.8-3.137,0.936c-1.185,0.143-2.426,0.149-3.853,0.38
		c-0.642,0.113-3.061,1.08-4.202,1.346c-0.512,0.125-1.204,0.208-1.204,0.208s0.231,0.806,0.862,0.955c0,0-0.336,0.723-1.118,1.108
		c-0.783,0.404-1.602,0.737-2.673,1.135c-1.085,0.373-2.785,1.054-3.225,1.405c0,0,0.339,0.676,1.007,1.038
		c0,0,0.162,0.094-0.758,0.563c-0.938,0.498-3.051,1.376-4.008,1.815c-0.991,0.445-2.327,1.234-2.986,1.559
		c-0.929,0.488-1.022,0.511-1.913,1.062c-0.873,0.534-0.426,0.505-0.426,0.505s0.436,0.094,1.055,0.142
		c0.64,0.048,0.983,0.297,0.983,0.297s0.066,0.338-0.381,0.735c-0.436,0.386-1.076,1.258-2.581,2.29
		c-0.749,0.509-1.4,1.091-2.222,1.667c-0.83,0.574-1.666,1.559-1.964,1.761l0.887,0.776l-0.134,0.612
		c-0.383,0.236-0.862,0.504-1.468,0.741c-0.686,0.303-6.549,1.091-13.329,1.009c-11.322-0.155-14.44-1.614-20.206-1.875
		c-5.776-0.273-10.06,1.008-15.332,2.615c-1.036,0.314-1.849,0.63-2.466,0.944c-2.216,0.463-4.453,1.079-6.502,1.868
		c-7.334,2.812-20.137,13.41-23.72,14.917c-3.535,1.495-5.526,1.566-8.036,1.251c-2.507-0.308-3.493-0.942-3.493-0.942
		s-1.284-2.717-2.753-3.825c-1.919-1.412-6.643-3.085-6.643-3.085s-0.824,3.102,0.853,6.091c2.013,3.571,5.952,3.345,7.373,3.927
		c2.512,1.007,8.502,2.224,13.553,0.195c4.533-1.821,9.13-4.839,12.404-6.678c3.259-1.828,8.486-3.416,12.889-3.91
		c-0.204,0.766-0.426,1.514-0.663,2.178c-1.233,3.748-5.782,11.69-6.71,13.013c-1.072,1.554-5.326,6.709-6.079,7.337
		c-0.734,0.64-2.537,1.352-4.795,1.768c-2.487,0.462-9.619,1.179-9.619,1.179s-1.261,6.376-2.839,10.267
		c-0.645,1.584-2.171,4.734-2.171,4.734s2.678,2.491,3.527,5.616c0.419,0.803,1.12,2.117,1.669,2.527v11.069H199.46v-11.294
		c0.281-0.871,0.714-2.911-1.046-3.754c-2.255-1.074-0.44-1.929-5.676-3.915c-1.498-0.569-3.995-1.371-4.843-2.071
		c-0.843-0.681-5.374-7.016-7.624-9.685c-2.266-2.687-6.885-8.82-6.885-8.82l-1.019-2.419l0.185-1.833
		c0.284-0.297,0.592-0.593,0.862-0.938c0.82-0.878,2.067-2.182,2.422-2.912c0.858-1.738,0.554-0.041,1.085-0.984
		c0.399-0.718,1.948-1.577,2.596-1.987c0.636-0.386,1.584-1.561,1.584-1.561s0.022,0.701,0.287,1.376c0,0,0.452-0.373,1.173-1.251
		c0.72-0.877,0.472-0.961,1.355-1.85c0.88-0.872,1.506-2.615,2.064-3.748c0.569-1.116,0.901-1.441,1.049-1.686
		c0,0,0.374,0.896,0.619,1.525c0,0,0.579-0.557,0.82-1.115c0.239-0.557,0.404-1.281,0.802-1.916
		c0.397-0.647,0.701-1.477,1.085-1.642c0.407-0.167,1.165-0.635,1.979-0.677c0.594-0.029,1.409,0.309,2.148,0.463
		c0.701,0.172,1.034-0.154,1.515,0.48c0.475,0.641,1.124,0.973,1.124,0.973s0.01-0.101,0.593-0.391
		c0.592-0.303,0.627-0.291,1.175-0.683c0.542-0.397,0.454-0.592,0.867-0.984c0.449-0.385,0.702-0.825,0.881-1.566
		c0.204-0.718-0.129-1.151,0.223-1.494c0.345-0.333,1.047-0.35,1.404-1.198c0.335-0.819,0.235-0.968,0.383-1.11
		c0.141-0.147,0.232-0.735,0.232-0.735s0.99-0.825,1.132-1.506c0.137-0.683,0.286-0.932,0.592-1.228
		C204.604,51.682,204.347,50.697,203.03,49.885 M124.341,88.389c1.057,0.487,3.696,1.627,6.559,2.712
		c0.284,0.746,0.493,1.826,0.404,3.326c-0.261,3.755-3.981,8.418-3.981,8.418s1.881,4.649,2.421,5.326
		c0.53,0.664,2.252,2.051,2.832,3.173c0.165,0.331,0.375,0.78,0.539,1.139h-10.224c0.168-1.395-0.747-1.978-0.994-2.219
		c-0.558-0.552-1.043-1.643-2.408-2.124c-4.776-1.701-4.699-1.014-6.079-2.118c-0.938-0.746-3.308-2.318-3.843-3.284
		c-0.534-0.968-1.502-5.356-1.52-9.105c0.009-2.266-0.157-4.419-0.314-5.766C112.134,87.109,119.073,86.017,124.341,88.389
		 M53.861,98.473c1.534-0.636,4.919,0.664,8.298,0.047c5.165-0.937,12.533-3.517,15.017-4.632c2.254-0.984,6.282-4.852,7.529-5.878
		c1.225-1.038,2.517-1.335,2.517-1.335s1.495,1.608,4.504,4.271c3.019,2.675,4.037,3.915,5.089,4.78
		c1.029,0.873,2.289,2.64,2.498,3.346c0.83,2.663,0.535,7.088,0.535,7.088s4.702,1.666,6.208,3.006
		c1.063,0.946,1.953,2.488,2.388,3.317H60.319c0.121-0.8,0.175-2.574-1.559-3.187c-1.264-0.532-1.008-0.995-3.681-1.921
		c-1.075-0.385-1.677-0.83-2.23-2.23c-0.533-1.406-0.542-3.737-0.542-3.737S52.548,99.006,53.861,98.473 M173.485,103.004
		c0,0,4.866,1.851,6.032,3.487c0.758,1.068,5.171,2.319,5.171,2.319s1.345,0.096,3.099,1.703c1.34,1.227,1.769,1.731,2.61,1.97
		h-44.701c0.139-0.727,0.182-1.939-0.902-2.557c-0.711-0.398-1.328-1.181-2.128-1.566c-3.085-1.471-3.422-0.931-4.711-1.963
		c-0.724-0.534-1.207-2.901-1.207-2.901s5.639-5.557,6.718-6.964c1.356-1.755,1.888-2.455,2.496-3.32
		c4.242-0.398,8.693-1.162,10.223-2.035c0.435-0.261,0.829-0.491,1.204-0.711c0.482,0.272,0.909,0.522,1.28,0.746
		c2.262,1.341,7.959,3.743,9.969,5.339C170.652,98.17,173.485,103.004,173.485,103.004"/>
	<path d="M188.391,180.198c-0.02,21.529-0.041,48.438-0.041,48.727c0,35.506-28.89,64.398-64.402,64.404h-0.018h-0.019
		c-35.512-0.006-64.401-28.898-64.401-64.404c0-0.289-0.022-27.197-0.041-48.727H48.392c0.019,21.508,0.04,48.396,0.04,48.734
		c0,41.609,33.864,75.475,75.49,75.475h0.008h0.007c41.626,0,75.49-33.865,75.49-75.475c0-0.338,0.022-27.227,0.04-48.734H188.391z"
		/>
	<path d="M123.922,256.407h0.007h0.008c15.158,0,27.489-12.332,27.489-27.49c0-0.092,0.022-27.1,0.042-48.717h-11.077
		c-0.019,21.619-0.042,48.625-0.042,48.717c0,9.047-7.357,16.406-16.401,16.412v-0.002c-0.006,0-0.012,0.002-0.019,0.002
		c-0.006,0-0.012-0.002-0.017-0.002v0.002c-9.045-0.006-16.403-7.365-16.403-16.412c0-0.092-0.022-27.098-0.042-48.717H96.39
		c0.021,21.617,0.043,48.625,0.043,48.717C96.433,244.075,108.764,256.407,123.922,256.407"/>
	<path fill="#009AD7" d="M123.922,281.043h0.007h0.008c28.742,0,52.126-23.385,52.126-52.125c0-0.201,0.022-27.154,0.042-48.719
		h-12.351c-0.02,21.615-0.041,48.625-0.041,48.717c0,21.928-17.837,39.77-39.765,39.775h-0.019h-0.017
		c-21.929-0.006-39.766-17.848-39.766-39.775c0-0.092-0.022-27.102-0.041-48.717H71.754c0.02,21.564,0.041,48.518,0.042,48.719
		C71.796,257.659,95.18,281.043,123.922,281.043"/>
</g>
</svg>
