<svg id="Logo" xmlns="http://www.w3.org/2000/svg" viewBox="0 0 850.39 850.39"><title>CNRS logo</title><path d="M418,255.41c-3-.19-6-.28-8.93-.29-42.17-.1-80.37,17.83-113.65,53.4-30.14,32.2-40.32,58.14-40.28,89.41,0,16.85,3,35.26,7.44,57C270.85,495.7,295,535,328.9,562.87c25.93,21.31,54.84,32.19,85.31,32.4a145,145,0,0,0,48.48-8.33c53.05-18.31,103.81-70.75,123.43-127.5,6.14-17.78,9.16-35.07,9.16-51.54,0-40.88-18.58-76.72-54.22-102.31C498,274.67,456.61,257.79,418,255.41Z" style="fill:#003a60"/><path d="M361.74,416.71H350.07V417c-.1,2.26-1.44,22.11-19.2,22.11-15.87,0-23.92-14.23-23.94-42.28s8.07-42.28,23.94-42.28c18.07,0,19.16,21.21,19.2,22.11V377h11.67a4,4,0,0,0,2.87-1.21,3.58,3.58,0,0,0,1-2.69c-.24-5.51-3.06-33-34.95-33-25.78,0-39.4,19.58-39.4,56.64s13.62,56.76,39.4,56.76c30.69,0,34.51-25.08,34.95-32.76a3.75,3.75,0,0,0-1-2.86A4,4,0,0,0,361.74,416.71Z" style="fill:#fff"/><path d="M531,390.13h0l-10-4.38c-9.66-4.25-13.09-8.38-13.09-15.79,0-9.67,7.07-16.16,17.59-16.16,6.23,0,11.33,1.27,17.56,7.62l.34.35,5.36-4.91c3.11-2.88,2.21-5.48.91-7.15-5.23-6.17-13.63-9.56-23.65-9.56-19.34,0-33.38,12.62-33.38,30,0,17.09,10.77,24.24,22.41,29.41l10.25,4.58c10.31,4.62,15.21,8.56,15.21,18.47,0,13.52-12.22,17.13-19.44,17.13-6.21,0-13.12-1.33-21.62-10.95l-.33-.38-5.58,4.9c-2.88,2.53-2.9,4.7-.1,8.3,7.69,9.89,19,12,27.07,12,17.53,0,35.27-10.76,35.27-31.34C555.75,404.42,545.87,396.52,531,390.13Z" style="fill:#9cd0e5"/><path d="M439.94,372.61c0-17.51-14.18-32.34-31.7-32.34a31.55,31.55,0,0,0-21.37,8.29v-6H376.32c-3.18,0-4.39,2.08-4.39,4.46V449.17a4,4,0,0,0,4.34,4.41h10.55V373.23a19.12,19.12,0,0,1,38.23,0v80.36h10.48c2.91,0,4.41-1.61,4.41-4.39Z" style="fill:#9cd0e5"/><path d="M494.42,347.91a4,4,0,0,0,.89-2.49,4,4,0,0,0-2.72-3.77,30.45,30.45,0,0,0-9.68-1.58,31.59,31.59,0,0,0-21.38,8.29v-6H451c-3.17,0-4.39,2.08-4.39,4.46V449a4,4,0,0,0,4.35,4.41h10.54V373a19.09,19.09,0,0,1,26.88-17.45l6.1-7.65Z" style="fill:#fff"/><path d="M408.81,564.1a2.84,2.84,0,0,1-2.84,2.84h0a2.84,2.84,0,0,1-2.83-2.84V371.34a2.83,2.83,0,0,1,2.83-2.83h0a2.84,2.84,0,0,1,2.84,2.83Z" style="fill:#fff"/></svg>