<?xml version="1.0" encoding="utf-8"?>
<!-- Generator: Adobe Illustrator 22.1.0, SVG Export Plug-In . SVG Version: 6.00 Build 0)  -->
<svg version="1.1" id="Calque_1" xmlns="http://www.w3.org/2000/svg" xmlns:xlink="http://www.w3.org/1999/xlink" x="0px" y="0px"
	 viewBox="0 0 347.8 136.1" style="enable-background:new 0 0 347.8 136.1;" xml:space="preserve">
<style type="text/css">
	.st0{fill:#2F52A0;}
	.st1{fill:#F9AF00;}
	.st2{fill:#FFFFFF;}
</style>
<g>
	<g>
		<g>
			<g>
				<path class="st0" d="M171.3,39h13.1v5.9h-20.2V7.1h7V39z"/>
				<path class="st0" d="M205.8,36.8h-9.5l-1.9,8.1h-7.1l10.1-37.8h7.3l10.1,37.8h-7.1L205.8,36.8z M197.8,30.9h6.6l-3.2-13.4H201
					L197.8,30.9z"/>
				<path class="st0" d="M218.9,44.9V7.1h10.6c3.7,0,6.6,0.9,8.7,2.6c2.1,1.7,3.1,4.3,3.1,7.7c0,1.8-0.4,3.4-1.1,4.8
					c-0.8,1.4-1.9,2.4-3.4,3.1c1.9,0.5,3.3,1.5,4.2,3c0.9,1.6,1.4,3.4,1.4,5.5c0,3.6-1,6.4-2.9,8.2c-2,1.9-4.8,2.8-8.5,2.8H218.9z
					 M225.9,23.1h3.9c1.4,0,2.5-0.5,3.3-1.3c0.8-0.8,1.1-2.1,1.1-3.6c0-1.8-0.4-3.1-1.2-3.9c-0.8-0.8-2-1.2-3.6-1.2h-3.6V23.1z
					 M225.9,28.2V39h5c1.5,0,2.6-0.4,3.3-1.3c0.7-0.9,1.1-2.2,1.1-3.9c0-1.8-0.3-3.2-0.9-4.2c-0.6-1-1.6-1.5-3-1.5H225.9z"/>
				<path class="st0" d="M295.5,20.3h0.1l4.9-13.2h8.1l-8.7,18.8l9.3,19.1h-8.5l-5-13.5h-0.1l-5,13.5h-8.2l8.9-19.1l-8.7-18.8h8.1
					L295.5,20.3z"/>
				<path class="st0" d="M171.6,96.1h-7V58.3h7V96.1z"/>
				<path class="st0" d="M187.7,58.3l6.4,27.8h0.1l6.5-27.8h9.2v37.8h-7v-11l0.6-14.7l-0.1,0l-6.9,25.7h-4.7l-6.8-25.5l-0.1,0
					l0.6,14.5v11h-7V58.3H187.7z"/>
				<path class="st0" d="M240.5,58.3v25.7c0,4-1.1,7.1-3.4,9.3c-2.2,2.2-5.2,3.3-8.8,3.3c-3.6,0-6.6-1.1-8.8-3.3
					c-2.2-2.2-3.4-5.3-3.4-9.3V58.3h7v25.7c0,2.3,0.5,4,1.4,5.1c0.9,1.1,2.2,1.6,3.8,1.6c1.7,0,3-0.5,3.9-1.6c0.9-1,1.3-2.8,1.3-5.2
					V58.3H240.5z"/>
				<path class="st0" d="M262.7,86.3c0-1.5-0.4-2.6-1.1-3.5c-0.7-0.9-2-1.7-3.8-2.5c-3.7-1.4-6.5-2.9-8.4-4.7
					c-1.9-1.7-2.8-4.2-2.8-7.3c0-3.1,1.1-5.6,3.3-7.6c2.2-1.9,4.9-2.9,8.3-2.9c3.4,0,6.2,1.1,8.3,3.3c2.1,2.2,3.2,4.9,3.1,8.2l0,0.2
					h-6.8c0-1.7-0.4-3.1-1.2-4.2c-0.8-1.1-2-1.6-3.5-1.6c-1.4,0-2.5,0.4-3.3,1.3s-1.2,2-1.2,3.4c0,1.2,0.4,2.3,1.3,3.1
					s2.4,1.7,4.5,2.7c3.4,1.2,6,2.7,7.7,4.6c1.7,1.9,2.6,4.4,2.6,7.5c0,3.3-1,5.8-3.1,7.7c-2.1,1.9-4.8,2.8-8.3,2.8
					c-3.4,0-6.4-1.1-8.9-3.2c-2.5-2.1-3.7-5.1-3.6-9.1l0-0.2h6.8c0,2.3,0.5,4,1.4,5c0.9,1,2.4,1.5,4.2,1.5c1.5,0,2.6-0.4,3.3-1.2
					C262.4,88.8,262.7,87.7,262.7,86.3z"/>
				<path class="st0" d="M296.6,64.2h-8.1v31.9h-7V64.2h-8v-5.9h23.1V64.2z"/>
			</g>
		</g>
		<g>
			<path d="M174.7,112.4v10.7c0,1.7-0.5,3-1.4,3.9c-0.9,0.9-2.2,1.4-3.7,1.4c-1.5,0-2.7-0.5-3.7-1.4c-0.9-0.9-1.4-2.2-1.4-3.9v-10.7
				h2.9v10.7c0,1,0.2,1.7,0.6,2.1c0.4,0.5,0.9,0.7,1.6,0.7c0.7,0,1.2-0.2,1.6-0.6c0.4-0.4,0.6-1.2,0.6-2.2v-10.7H174.7z"/>
			<path d="M187.8,128.2h-2.9l-4.6-10.1l-0.1,0v10.1h-2.9v-15.8h2.9l4.6,10.1l0.1,0v-10.1h2.9V128.2z"/>
			<path d="M193.7,128.2h-2.9v-15.8h2.9V128.2z"/>
			<path d="M201.2,124.1l0.1,0.6h0.1l0.1-0.6l2.5-11.8h3.1l-4.2,15.8h-3l-4.2-15.8h3.1L201.2,124.1z"/>
			<path d="M216.8,121.2h-5v4.5h5.9v2.5h-8.8v-15.8h8.8v2.5h-5.9v3.9h5V121.2z"/>
			<path d="M222.6,121.9v6.3h-2.9v-15.8h4.9c1.5,0,2.6,0.4,3.5,1.2c0.8,0.8,1.3,2,1.3,3.4c0,0.8-0.2,1.5-0.5,2.1s-0.9,1.1-1.5,1.4
				c0.8,0.3,1.3,0.7,1.7,1.4c0.3,0.6,0.5,1.4,0.5,2.4v1.1c0,0.4,0,0.9,0.1,1.4c0.1,0.5,0.3,0.9,0.5,1.1v0.2h-3
				c-0.2-0.2-0.4-0.6-0.5-1.1c-0.1-0.5-0.1-1.1-0.1-1.6v-1.1c0-0.8-0.2-1.4-0.5-1.8c-0.3-0.4-0.7-0.6-1.3-0.6H222.6z M222.6,119.4h2
				c0.6,0,1.1-0.2,1.4-0.6c0.3-0.4,0.5-0.9,0.5-1.6c0-0.7-0.2-1.3-0.5-1.7c-0.3-0.4-0.8-0.6-1.3-0.6h-2V119.4z"/>
			<path d="M238.8,124c0-0.6-0.2-1.1-0.5-1.5c-0.3-0.4-0.8-0.7-1.6-1.1c-1.6-0.6-2.7-1.2-3.5-1.9c-0.8-0.7-1.2-1.7-1.2-3
				c0-1.3,0.5-2.3,1.4-3.2c0.9-0.8,2.1-1.2,3.5-1.2c1.4,0,2.6,0.5,3.5,1.4c0.9,0.9,1.3,2,1.3,3.4l0,0.1h-2.8c0-0.7-0.2-1.3-0.5-1.8
				c-0.3-0.4-0.8-0.7-1.5-0.7c-0.6,0-1,0.2-1.4,0.6c-0.3,0.4-0.5,0.8-0.5,1.4c0,0.5,0.2,0.9,0.5,1.3c0.4,0.3,1,0.7,1.9,1.1
				c1.4,0.5,2.5,1.1,3.2,1.9c0.7,0.8,1.1,1.8,1.1,3.1c0,1.4-0.4,2.4-1.3,3.2c-0.9,0.8-2,1.2-3.4,1.2c-1.4,0-2.7-0.4-3.7-1.3
				c-1-0.9-1.6-2.1-1.5-3.8l0-0.1h2.8c0,1,0.2,1.7,0.6,2.1s1,0.6,1.8,0.6c0.6,0,1.1-0.2,1.4-0.5C238.7,125.1,238.8,124.6,238.8,124z
				"/>
			<path d="M247.2,128.2h-2.9v-15.8h2.9V128.2z"/>
			<path d="M258.7,114.8h-3.4v13.3h-2.9v-13.3H249v-2.5h9.7V114.8z"/>
			<path d="M268.6,121.2h-5v4.5h5.9v2.5h-8.8v-15.8h8.8v2.5h-5.9v3.9h5V121.2z M265.1,108.4h3.1l0,0.1l-2.6,2.8l-2.4,0L265.1,108.4z
				"/>
			<path d="M276.7,128.2v-15.8h4.5c1.5,0,2.8,0.6,3.8,1.8c1,1.2,1.5,2.8,1.5,4.7v2.7c0,1.9-0.5,3.5-1.5,4.7c-1,1.2-2.3,1.8-3.8,1.8
				H276.7z M279.6,114.8v10.9h1.4c0.8,0,1.4-0.4,1.9-1.1c0.4-0.7,0.7-1.7,0.7-3v-2.7c0-1.2-0.2-2.2-0.7-3c-0.4-0.7-1.1-1.1-1.9-1.1
				H279.6z"/>
			<path d="M297,121.2h-5v4.5h5.9v2.5H289v-15.8h8.8v2.5H292v3.9h5V121.2z"/>
			<path d="M308,125.7h5.5v2.5h-8.4v-15.8h2.9V125.7z"/>
			<path d="M317.6,119.1L317.6,119.1l2.6-6.8h3.2l-4.3,10.2v5.6h-2.9v-5.8l-4.2-10h3.2L317.6,119.1z"/>
			<path d="M334.9,122.5c0,1.8-0.5,3.3-1.4,4.3c-1,1-2.2,1.6-3.8,1.6c-1.6,0-2.9-0.5-3.8-1.6c-0.9-1-1.4-2.5-1.4-4.3v-4.4
				c0-1.8,0.5-3.3,1.4-4.3s2.2-1.6,3.8-1.6c1.6,0,2.8,0.5,3.8,1.6c1,1.1,1.4,2.5,1.4,4.3V122.5z M332,118c0-1.1-0.2-2-0.6-2.6
				c-0.4-0.6-1-0.9-1.7-0.9c-0.8,0-1.3,0.3-1.7,0.9c-0.4,0.6-0.6,1.4-0.6,2.6v4.5c0,1.1,0.2,2,0.6,2.6c0.4,0.6,1,0.9,1.7,0.9
				c0.8,0,1.3-0.3,1.7-0.9c0.4-0.6,0.6-1.4,0.6-2.6V118z"/>
			<path d="M347.8,128.2h-2.9l-4.6-10.1l-0.1,0v10.1h-2.9v-15.8h2.9l4.6,10.1l0.1,0v-10.1h2.9V128.2z"/>
		</g>
		<rect x="248.8" y="7.2" class="st0" width="28.5" height="5.7"/>
		<rect x="248.8" y="23.2" class="st0" width="28.5" height="5.7"/>
		<rect x="248.8" y="39.2" class="st0" width="28.5" height="5.7"/>
	</g>
	<g>
		<g>
			
				<rect x="0" y="0" transform="matrix(6.123234e-17 -1 1 6.123234e-17 1.499998e-04 136.0631)" class="st1" width="136.1" height="136.1"/>
			<polygon class="st0" points="136.1,0 136.1,136.1 0,136.1 			"/>
		</g>
	</g>
	<g>
		<path class="st2" d="M73.5,71.8c0,7.3,0,16.5,0,16.5c0,3.1-2.5,5.6-5.6,5.6c-3.1,0-5.6-2.5-5.6-5.6c0-0.2,0-0.5,0-0.7V71.8h-3.8
			v15.9c0,0.2,0,0.4,0,0.6c0,5.1,4.2,9.3,9.3,9.3c5.1,0,9.3-4.2,9.3-9.3c0,0,0-9.2,0-16.5H73.5z"/>
		<path class="st2" d="M89.8,71.8c0,7.3,0,16.4,0,16.5c0,12-9.8,21.8-21.8,21.8c-11.8,0-21.5-9.5-21.8-21.2l0-0.2v-17h-3.8v17.3
			l0,0.2c0.5,13.6,11.8,24.6,25.6,24.6c14.1,0,25.6-11.5,25.6-25.6c0-0.1,0-9.2,0-16.5H89.8z"/>
		<path class="st2" d="M81.4,71.8c0,7.3,0,16.5,0,16.5c0,7.4-6,13.5-13.5,13.5c-7.4,0-13.5-6-13.5-13.5c0,0,0-0.2,0-0.3V71.8h-4.2
			v16.3l0,0.2l0,0.1c0.1,9.7,8,17.5,17.7,17.5c9.7,0,17.7-7.9,17.7-17.7c0-0.1,0-9.2,0-16.5H81.4z"/>
		<path class="st2" d="M94.7,27.6c0,0-0.1-0.1-0.2-0.3c-0.2-0.2-0.6-0.4-0.8-0.6c-0.2-0.2-0.4-0.5-0.5-0.6c-0.1-0.1-0.3-0.5-0.5-0.5
			c-0.1-0.1-0.3-0.7-0.3-0.8c0-0.1-0.1-0.3-0.2-0.3c-0.1,0-0.4-0.2-0.6-0.4c-0.2-0.2-0.6-0.6-0.6-0.6s-0.1-0.7-0.3-1.1
			c-0.2-0.4-0.3-0.5-0.3-0.7c-0.1-0.1-0.1-0.2-0.2-0.4c0,0-0.2,0-0.5,0.1c0,0-0.5-0.4-1-0.6c-0.5-0.3-1-0.6-1.3-0.6
			c-0.2-0.1-0.5-0.2-0.7-0.3c0,0-0.3,0-0.6,0c-0.2,0-0.9,0.1-1.2,0.1c-0.3,0-1.2,0.2-1.4,0.2c-0.4,0-0.5,0.1-1.1,0.2
			c0,0-0.5,0.1-0.7,0.2c-0.2,0.1-0.7,0.3-1.1,0.3c-0.4,0-0.8,0-1.3,0.1c-0.2,0-1,0.4-1.4,0.5c-0.2,0-0.4,0.1-0.4,0.1
			s0.1,0.3,0.3,0.3c0,0-0.1,0.2-0.4,0.4c-0.3,0.1-0.5,0.2-0.9,0.4c-0.4,0.1-0.9,0.4-1.1,0.5c0,0,0.1,0.2,0.3,0.4c0,0,0.1,0-0.3,0.2
			c-0.3,0.2-1,0.5-1.4,0.6c-0.3,0.1-0.8,0.4-1,0.5c-0.3,0.2-0.3,0.2-0.7,0.4c-0.3,0.2-0.1,0.2-0.1,0.2s0.1,0,0.4,0
			c0.2,0,0.3,0.1,0.3,0.1s0,0.1-0.1,0.2c-0.1,0.1-0.4,0.4-0.9,0.8c-0.3,0.2-0.5,0.4-0.8,0.6c-0.3,0.2-0.6,0.5-0.7,0.6l0.3,0.3l0,0.2
			c-0.1,0.1-0.3,0.2-0.5,0.3c-0.2,0.1-2.3,0.4-4.6,0.3c-3.8-0.1-4.9-0.5-6.8-0.6c-2-0.1-3.4,0.3-5.2,0.9c-0.4,0.1-0.6,0.2-0.8,0.3
			c-0.8,0.2-1.5,0.4-2.2,0.6c-2.5,1-6.8,4.5-8,5.1c-1.2,0.5-1.9,0.5-2.7,0.4c-0.8-0.1-1.2-0.3-1.2-0.3S38.5,34,38,33.6
			c-0.7-0.5-2.3-1-2.3-1s-0.3,1.1,0.3,2.1c0.7,1.2,2,1.1,2.5,1.3c0.9,0.3,2.9,0.8,4.6,0.1c1.5-0.6,3.1-1.6,4.2-2.3
			c1.1-0.6,2.9-1.2,4.4-1.3c-0.1,0.3-0.1,0.5-0.2,0.7c-0.4,1.3-2,4-2.3,4.4c-0.4,0.5-1.8,2.3-2.1,2.5c-0.2,0.2-0.9,0.5-1.6,0.6
			c-0.8,0.2-3.3,0.4-3.3,0.4s-0.4,2.2-1,3.5c-0.2,0.5-0.7,1.6-0.7,1.6s0.9,0.8,1.2,1.9c0.2,0.3,0.5,0.9,0.7,0.9h3.9
			c0,0,0.3-0.9-0.5-1.2c-0.4-0.2-0.3-0.3-1.2-0.7c-0.4-0.1-0.6-0.3-0.8-0.8c-0.2-0.5-0.2-1.3-0.2-1.3s0.1-0.8,0.5-1
			c0.5-0.2,1.7,0.2,2.8,0c1.7-0.3,4.2-1.2,5.1-1.6c0.8-0.3,2.1-1.6,2.6-2c0.4-0.4,0.9-0.5,0.9-0.5s0.5,0.5,1.5,1.4
			c1,0.9,1.4,1.3,1.7,1.6c0.3,0.3,0.8,0.9,0.8,1.1c0.3,0.9,0.2,2.4,0.2,2.4s1.6,0.6,2.1,1c0.5,0.5,0.9,1.3,0.9,1.3l4.8,0
			c0.2-0.6-0.2-0.9-0.3-1c-0.2-0.2-0.4-0.6-0.8-0.7c-1.6-0.6-1.6-0.3-2.1-0.7c-0.3-0.3-1.1-0.8-1.3-1.1c-0.2-0.3-0.5-1.8-0.5-3.1
			c0-0.8-0.1-1.5-0.1-2c1.5-0.3,3.8-0.6,5.6,0.2c0.4,0.2,1.3,0.6,2.3,0.9c0.1,0.3,0.2,0.6,0.1,1.1c-0.1,1.3-1.4,2.9-1.4,2.9
			s0.6,1.6,0.8,1.8c0.2,0.2,0.8,0.7,1,1.1c0.1,0.2,0.3,0.6,0.3,0.6h4.1c0,0,0.3-0.8-0.3-1.1c-0.2-0.1-0.5-0.4-0.7-0.5
			c-1-0.5-1.2-0.3-1.6-0.7c-0.2-0.2-0.4-1-0.4-1s1.9-1.9,2.3-2.4c0.5-0.6,0.6-0.8,0.8-1.1c1.4-0.1,2.9-0.4,3.5-0.7
			c0.1-0.1,0.3-0.2,0.4-0.2c0.2,0.1,0.3,0.2,0.4,0.3c0.8,0.5,2.7,1.3,3.4,1.8c0.7,0.5,1.6,2.2,1.6,2.2s1.6,0.6,2,1.2
			c0.3,0.4,1.8,0.8,1.8,0.8s0.5,0,1,0.6c0.6,0.5,0.7,0.7,1.2,0.7c1,0.1,2.7,0.1,2.7,0.1s0.5-1-0.3-1.4c-0.8-0.4-0.1-0.7-1.9-1.3
			c-0.5-0.2-1.4-0.5-1.6-0.7c-0.3-0.2-1.8-2.4-2.6-3.3c-0.8-0.9-2.3-3-2.3-3l-0.3-0.8l0.1-0.6c0.1-0.1,0.2-0.2,0.3-0.3
			c0.3-0.3,0.7-0.7,0.8-1c0.3-0.6,0.2,0,0.4-0.3c0.1-0.2,0.7-0.5,0.9-0.7c0.2-0.1,0.5-0.5,0.5-0.5s0,0.2,0.1,0.5
			c0,0,0.2-0.1,0.4-0.4c0.2-0.3,0.2-0.3,0.5-0.6c0.3-0.3,0.5-0.9,0.7-1.3c0.2-0.4,0.3-0.5,0.4-0.6c0,0,0.1,0.3,0.2,0.5
			c0,0,0.2-0.2,0.3-0.4c0.1-0.2,0.1-0.4,0.3-0.6c0.1-0.2,0.2-0.5,0.4-0.6c0.1-0.1,0.4-0.2,0.7-0.2c0.2,0,0.5,0.1,0.7,0.2
			c0.2,0.1,0.3-0.1,0.5,0.2c0.2,0.2,0.4,0.3,0.4,0.3s0,0,0.2-0.1c0.2-0.1,0.2-0.1,0.4-0.2c0.2-0.1,0.2-0.2,0.3-0.3
			c0.2-0.1,0.2-0.3,0.3-0.5c0.1-0.2,0-0.4,0.1-0.5c0.1-0.1,0.4-0.1,0.5-0.4c0.1-0.3,0.1-0.3,0.1-0.4c0,0,0.1-0.2,0.1-0.2
			s0.3-0.3,0.4-0.5c0-0.2,0.1-0.3,0.2-0.4C95.3,28.2,95.2,27.9,94.7,27.6"/>
		<rect x="42.3" y="64.2" class="st2" width="51.2" height="3.8"/>
		<rect x="42.3" y="56.5" class="st2" width="51.2" height="3.8"/>
		<rect x="42.3" y="48.8" class="st2" width="51.2" height="3.8"/>
	</g>
</g>
</svg>
