<svg id="Calque_1" data-name="Calque 1" xmlns="http://www.w3.org/2000/svg" viewBox="0 0 141.73 68.03"><title>EPFL-Logo-CMJN</title><path d="M45.89,40.09S34,23.75,45.89,0H.29V40.09Z" style="fill:#e30613"/><path d="M100.93,40.11c-6-9.58-5.63-18.18-5.63-18.18l0-21.9h46.35l0,40.08Z" style="fill:#e30613"/><path d="M55.44,0S50.21,9.17,50,17.77h4.84v4.15h-5s-.4,8.6,5.63,18.18H50.55S38.69,23.75,50.55,0Z" style="fill:#1d1d1b"/><path d="M73.77,40.11h4.62V21.93h4.92V17.78H78.47C78.66,9.18,83.9,0,83.9,0H79a46.93,46.93,0,0,0-5.26,20.05Z" style="fill:#1d1d1b"/><path d="M90.6,21.93s-.4,8.6,5.63,18.18H91.34s-5.53-7.62-5.26-20V0h4.49Z" style="fill:#1d1d1b"/><rect x="58.46" y="0.03" width="4.55" height="40.08" style="fill:#1d1d1b"/><path d="M69.14,0H64.3s7.61,10,0,20.06h4.84A17.57,17.57,0,0,0,69.14,0Z" style="fill:#1d1d1b"/><path d="M4,45.53c.05.1,0,.13,0,.13a1.53,1.53,0,0,0-.32,0A7.24,7.24,0,0,0,2,46.1a.46.46,0,0,1-.16.06s-.05,0-.05-.07,0-.05.07-.08c.39-.26,1.38-.87,1.46-.91s.24-.14.29-.14.06,0,.11.1S3.9,45.32,4,45.53ZM.93,50.08c0-1.67,0-2,0-2.31s-.1-.53-.46-.61a2,2,0,0,0-.36,0A.07.07,0,0,1,0,47.06C0,47,.05,47,.17,47c.48,0,1.15,0,1.2,0H3.82a2.84,2.84,0,0,0,.45,0c.06,0,.1-.05.15-.05s0,0,0,.09-.06.2-.09.5c0,.11,0,.58,0,.71s0,.12-.08.12-.08-.06-.08-.14a1,1,0,0,0-.07-.39c-.07-.17-.18-.3-.75-.36-.19,0-1.35,0-1.47,0s-.06,0-.06.11v2.94c0,.07,0,.1.06.1s1.46,0,1.7,0,.41,0,.5-.15.12-.13.16-.13.06,0,.06.08-.06.24-.09.6,0,.6,0,.68,0,.2-.08.2-.07,0-.07-.09a1.2,1.2,0,0,0,0-.36c0-.14-.14-.32-.56-.37s-1.34-.05-1.53-.05a.06.06,0,0,0-.07.07V52c0,.36,0,1.6,0,1.83,0,.73.19.87,1.24.87a3,3,0,0,0,1-.12c.28-.11.41-.33.48-.76,0-.12,0-.16.1-.16s.06.08.06.16a8.78,8.78,0,0,1-.14,1c-.07.28-.16.28-.57.28C2.4,55.08,1.68,55,1.37,55l-1,0C.21,55,.16,55,.16,55a.07.07,0,0,1,.08-.07,1.65,1.65,0,0,0,.32,0c.22,0,.27-.27.31-.58A23.12,23.12,0,0,0,.93,52Z" style="fill:#1d1d1b"/><path d="M7.51,54a4.06,4.06,0,0,1-1.29-3.15A4.26,4.26,0,0,1,7.41,48a4.31,4.31,0,0,1,3.25-1.14,8.75,8.75,0,0,1,1.55.13,10.27,10.27,0,0,0,1.09.16c.12,0,.14.05.14.12s0,.21,0,.59,0,.94,0,1.1,0,.23-.09.23-.09-.08-.09-.23a1.49,1.49,0,0,0-.45-1.09,3.6,3.6,0,0,0-2.13-.6A3.25,3.25,0,0,0,8.14,48a3.58,3.58,0,0,0-1,2.79A3.85,3.85,0,0,0,11,54.71a2.42,2.42,0,0,0,1.85-.54,2,2,0,0,0,.4-.9c0-.11,0-.16.11-.16s.07.08.07.16a10.48,10.48,0,0,1-.24,1.37c-.06.2-.08.22-.27.31a6.24,6.24,0,0,1-1.92.24A4.91,4.91,0,0,1,7.51,54Z" style="fill:#1d1d1b"/><path d="M15.82,50.7c0-2.33,1.33-3.51,3.11-3.51s3.25,1.38,3.25,3.94c0,3.11-2,3.66-2.95,3.66C17.31,54.79,15.82,53.19,15.82,50.7Zm-1,.3a4,4,0,0,0,4.14,4.19,4.19,4.19,0,0,0,4.26-4.36,3.89,3.89,0,0,0-4.19-4A4.14,4.14,0,0,0,14.8,51Z" style="fill:#1d1d1b"/><path d="M26.68,52c0,1.57,0,2.25.23,2.45s.45.24,1.28.24c.57,0,1,0,1.29-.32a1.46,1.46,0,0,0,.28-.64c0-.08,0-.14.1-.14s.06,0,.06.17a6.35,6.35,0,0,1-.16,1.06c-.07.25-.11.29-.67.29-1.54,0-2.24-.07-2.86-.07l-1.05,0C25.07,55,25,55,25,55s0-.07.09-.07a1.87,1.87,0,0,0,.32,0c.21,0,.26-.27.31-.58s.05-1.29.05-2.32V50.08c0-1.67,0-2,0-2.31s-.11-.53-.46-.61a2.1,2.1,0,0,0-.36,0s-.09,0-.09-.07S24.91,47,25,47c.48,0,1.16,0,1.21,0l1.15,0c.12,0,.17,0,.17.08a.07.07,0,0,1-.08.07l-.36,0c-.31.05-.39.24-.41.61s0,.64,0,2.31Z" style="fill:#1d1d1b"/><path d="M32.1,50.08c0-1.67,0-2,0-2.31s-.11-.53-.46-.61a2.22,2.22,0,0,0-.37,0,.07.07,0,0,1-.08-.07c0-.06,0-.08.17-.08.48,0,1.15,0,1.2,0H35a3.17,3.17,0,0,0,.46,0s.09-.05.15-.05,0,0,0,.09,0,.2-.09.5c0,.11,0,.58,0,.71s0,.12-.07.12-.09-.06-.09-.14a1.23,1.23,0,0,0-.06-.39c-.08-.17-.19-.3-.76-.36-.18,0-1.35,0-1.46,0s-.07,0-.07.11v2.94c0,.07,0,.1.07.1s1.45,0,1.69,0,.41,0,.5-.15.12-.13.16-.13.06,0,.06.08-.06.24-.09.6,0,.6,0,.68,0,.2-.07.2-.08,0-.08-.09a1.2,1.2,0,0,0,0-.36c0-.14-.14-.32-.56-.37s-1.34-.05-1.52-.05S33,51,33,51V52c0,.36,0,1.6,0,1.83,0,.73.2.87,1.24.87a2.94,2.94,0,0,0,1-.12c.28-.11.41-.33.48-.76,0-.12.05-.16.1-.16s.06.08.06.16-.08.81-.13,1-.16.28-.58.28c-1.61,0-2.33-.07-2.64-.07l-1,0c-.12,0-.17,0-.17-.08a.07.07,0,0,1,.08-.07,1.65,1.65,0,0,0,.32,0c.22,0,.27-.27.31-.58A23.12,23.12,0,0,0,32.1,52Z" style="fill:#1d1d1b"/><path d="M42.07,50.08c0-1.67,0-2,0-2.31s-.11-.53-.46-.61a2.1,2.1,0,0,0-.36,0s-.09,0-.09-.07.06-.08.17-.08c.48,0,1.12,0,1.21,0s.85,0,1.34,0a2.6,2.6,0,0,1,2,.61,1.86,1.86,0,0,1,.53,1.27,2.48,2.48,0,0,1-2.62,2.54.9.9,0,0,1-.23,0c-.05,0-.11,0-.11-.07s.06-.09.28-.09a1.77,1.77,0,0,0,1.85-1.74,2.26,2.26,0,0,0-.6-1.65,1.86,1.86,0,0,0-1.46-.53,1.17,1.17,0,0,0-.46.07c-.06,0-.08.09-.08.2V52c0,1,0,1.87,0,2.32s.1.54.42.58l.48,0A.07.07,0,0,1,44,55s0,.08-.17.08c-.59,0-1.26,0-1.31,0l-1,0c-.11,0-.17,0-.17-.08s0-.07.09-.07a1.87,1.87,0,0,0,.32,0c.21,0,.27-.27.31-.58s0-1.29,0-2.32Z" style="fill:#1d1d1b"/><path d="M48.72,50.7c0-2.33,1.33-3.51,3.11-3.51s3.25,1.38,3.25,3.94c0,3.11-2,3.66-2.95,3.66C50.21,54.79,48.72,53.19,48.72,50.7Zm-1,.3a4,4,0,0,0,4.14,4.19,4.19,4.19,0,0,0,4.26-4.36,3.89,3.89,0,0,0-4.19-4A4.14,4.14,0,0,0,47.7,51Z" style="fill:#1d1d1b"/><path d="M59.36,52c0,1.57,0,2.25.24,2.45s.45.24,1.28.24c.57,0,1,0,1.29-.32a1.46,1.46,0,0,0,.28-.64c0-.08,0-.14.09-.14s.07,0,.07.17a7.62,7.62,0,0,1-.16,1.06c-.08.25-.11.29-.68.29-1.53,0-2.24-.07-2.85-.07l-1.05,0c-.12,0-.17,0-.17-.08a.07.07,0,0,1,.08-.07,1.86,1.86,0,0,0,.33,0c.21,0,.26-.27.3-.58A23.12,23.12,0,0,0,58.47,52V50.08c0-1.67,0-2,0-2.31s-.11-.53-.46-.61a2.19,2.19,0,0,0-.36,0c-.05,0-.09,0-.09-.07s.05-.08.17-.08c.48,0,1.15,0,1.21,0l1.15,0c.12,0,.17,0,.17.08s0,.07-.09.07l-.35,0c-.31.05-.39.24-.41.61s0,.64,0,2.31Z" style="fill:#1d1d1b"/><path d="M65.76,52.28a2.26,2.26,0,0,0-.25-1.12c-.07-.17-1.5-2.52-1.88-3.07a3.21,3.21,0,0,0-.72-.79,1,1,0,0,0-.46-.17c-.06,0-.11,0-.11-.08s0-.07.14-.07l1.06,0c.07,0,.48,0,.89,0,.12,0,.14,0,.14.07s-.06.06-.16.1a.23.23,0,0,0-.14.19,1,1,0,0,0,.14.42c.17.31,1.77,3.06,2,3.37.21-.45,1.56-2.78,1.77-3.14a1,1,0,0,0,.18-.54c0-.15,0-.27-.17-.3S68,47.1,68,47s.06-.06.17-.06c.27,0,.61,0,.7,0l1,0C70,47,70,47,70,47s-.05.09-.14.09a1,1,0,0,0-.49.15,2.13,2.13,0,0,0-.56.54,34.36,34.36,0,0,0-2,3.4,2.52,2.52,0,0,0-.16,1.06v.92c0,.17,0,.62,0,1.07s.12.54.44.58l.48,0a.08.08,0,0,1,.09.07s-.06.08-.18.08c-.58,0-1.25,0-1.31,0l-1,0C65,55,65,55,65,55a.07.07,0,0,1,.08-.07,1.75,1.75,0,0,0,.32,0c.22,0,.31-.27.33-.58s0-.9,0-1.07Z" style="fill:#1d1d1b"/><path d="M74,52c0,1,0,1.87,0,2.32s.1.54.42.58l.48,0c.07,0,.09,0,.09.07S75,55,74.9,55c-.59,0-1.26,0-1.31,0l-1,0c-.12,0-.17,0-.17-.08a.07.07,0,0,1,.08-.07,1.65,1.65,0,0,0,.32,0c.22,0,.27-.27.31-.58A23.12,23.12,0,0,0,73.14,52V47.44l-1.58,0c-.66,0-.92.09-1.09.34a1.66,1.66,0,0,0-.18.33c0,.09-.07.11-.11.11s-.05,0-.05-.1.21-1,.23-1.11.07-.2.11-.2a1.8,1.8,0,0,0,.47.13c.31,0,.71,0,.84,0h4a5.53,5.53,0,0,0,1.06-.1s0,.06,0,.12c0,.32,0,1.06,0,1.18s0,.14-.08.14-.07,0-.08-.18v-.12c0-.32-.29-.57-1.31-.59l-1.35,0Z" style="fill:#1d1d1b"/><path d="M79.13,50.08c0-1.67,0-2,0-2.31s-.1-.53-.46-.61a2,2,0,0,0-.36,0,.07.07,0,0,1-.08-.07c0-.06.05-.08.16-.08.48,0,1.16,0,1.21,0H82a3,3,0,0,0,.46,0c.06,0,.1-.05.15-.05s0,0,0,.09,0,.2-.08.5c0,.11,0,.58,0,.71s0,.12-.08.12-.09-.06-.09-.14a1,1,0,0,0-.06-.39c-.07-.17-.18-.3-.76-.36-.18,0-1.34,0-1.46,0s-.06,0-.06.11v2.94c0,.07,0,.1.06.1s1.45,0,1.7,0,.4,0,.5-.15.12-.13.16-.13.06,0,.06.08-.06.24-.09.6,0,.6,0,.68,0,.2-.07.2a.08.08,0,0,1-.08-.09,1.59,1.59,0,0,0,0-.36c0-.14-.15-.32-.56-.37s-1.35-.05-1.53-.05A.06.06,0,0,0,80,51V52c0,.36,0,1.6,0,1.83,0,.73.19.87,1.23.87a3,3,0,0,0,1-.12c.28-.11.41-.33.48-.76,0-.12,0-.16.1-.16s.06.08.06.16-.09.81-.14,1-.16.28-.57.28c-1.61,0-2.33-.07-2.64-.07l-1,0c-.11,0-.16,0-.16-.08a.07.07,0,0,1,.08-.07,1.87,1.87,0,0,0,.32,0c.21,0,.27-.27.31-.58s0-1.29,0-2.32Z" style="fill:#1d1d1b"/><path d="M85.71,54a4.09,4.09,0,0,1-1.29-3.15,4,4,0,0,1,4.45-4.06,8.83,8.83,0,0,1,1.55.13,9.91,9.91,0,0,0,1.09.16c.11,0,.14.05.14.12s0,.21-.06.59,0,.94,0,1.1,0,.23-.09.23-.09-.08-.09-.23a1.49,1.49,0,0,0-.45-1.09,3.6,3.6,0,0,0-2.13-.6,3.3,3.3,0,0,0-2.46.77,3.58,3.58,0,0,0-1,2.79,3.86,3.86,0,0,0,3.85,3.91,2.46,2.46,0,0,0,1.86-.54,2,2,0,0,0,.4-.9c0-.11,0-.16.1-.16s.07.08.07.16a10.11,10.11,0,0,1-.23,1.37c-.06.2-.08.22-.28.31a6.15,6.15,0,0,1-1.92.24A4.92,4.92,0,0,1,85.71,54Z" style="fill:#1d1d1b"/><path d="M100.67,52c0,1,0,1.87,0,2.32s.1.54.42.58l.48,0c.07,0,.08,0,.08.07s0,.08-.17.08c-.58,0-1.25,0-1.3,0l-1,0C99.06,55,99,55,99,55a.07.07,0,0,1,.08-.07,1.65,1.65,0,0,0,.32,0c.21,0,.27-.27.31-.58A23.12,23.12,0,0,0,99.78,52V50.83a.07.07,0,0,0-.07-.06H95.19s-.07,0-.07.06V52c0,1,0,1.87,0,2.32s.1.54.42.58l.48,0c.07,0,.09,0,.09.07S96.1,55,96,55c-.59,0-1.26,0-1.31,0l-1.05,0c-.12,0-.17,0-.17-.08a.07.07,0,0,1,.08-.07,1.65,1.65,0,0,0,.32,0c.22,0,.27-.27.32-.58s0-1.29,0-2.32V50.08c0-1.67,0-2,0-2.31s-.11-.53-.46-.61a2.22,2.22,0,0,0-.37,0,.07.07,0,0,1-.08-.07c0-.06,0-.08.17-.08.48,0,1.15,0,1.21,0l1,0c.12,0,.17,0,.17.08a.07.07,0,0,1-.08.07l-.27,0c-.29.05-.37.24-.4.61s0,.64,0,2.31v.22c0,.05,0,.06.07.06h4.52s.07,0,.07-.06v-.22c0-1.67,0-2,0-2.31s-.1-.53-.45-.61a2.22,2.22,0,0,0-.37,0s-.09,0-.09-.07S98.9,47,99,47c.48,0,1.15,0,1.21,0l1,0c.11,0,.17,0,.17.08s0,.07-.09.07l-.26,0c-.29.05-.38.24-.4.61s0,.64,0,2.31Z" style="fill:#1d1d1b"/><path d="M104.76,53.59c0,.88.12,1.16.41,1.24a2,2,0,0,0,.54.06.07.07,0,0,1,.08.07c0,.06-.06.08-.19.08-.61,0-1,0-1.13,0s-.55,0-1,0c-.11,0-.18,0-.18-.08a.08.08,0,0,1,.09-.07,1.3,1.3,0,0,0,.44-.06c.26-.07.32-.38.32-1.35V47.37c0-.42,0-.54.12-.54s.26.23.37.34,1.75,1.9,3.39,3.66c1.06,1.13,2.22,2.43,2.56,2.79l-.12-5.42c0-.69-.08-.93-.41-1a3,3,0,0,0-.52,0c-.08,0-.09,0-.09-.08s.09-.07.21-.07c.48,0,1,0,1.11,0s.47,0,.91,0c.12,0,.19,0,.19.07s0,.08-.11.08a1,1,0,0,0-.26,0c-.35.08-.4.31-.4,1l0,6.25c0,.71,0,.76-.1.76s-.2-.12-.77-.68c-.12-.11-1.66-1.68-2.79-2.89s-2.44-2.68-2.78-3.07Z" style="fill:#1d1d1b"/><path d="M115.47,52c0,1,0,1.87,0,2.32s.1.54.42.58l.48,0a.07.07,0,0,1,.08.07s0,.08-.17.08c-.59,0-1.26,0-1.31,0l-1,0c-.11,0-.17,0-.17-.08s0-.07.09-.07a1.87,1.87,0,0,0,.32,0c.21,0,.27-.27.31-.58s0-1.29,0-2.32V50.08c0-1.67,0-2,0-2.31s-.13-.54-.36-.6a1.53,1.53,0,0,0-.33,0s-.09,0-.09-.07,0-.08.17-.08L115,47l1,0c.11,0,.17,0,.17.08s0,.07-.09.07l-.26,0c-.3.05-.38.24-.4.61s0,.64,0,2.31Z" style="fill:#1d1d1b"/><path d="M119.06,50.7c0-2.33,1.34-3.51,3.12-3.51s3.24,1.38,3.24,3.94c0,3.11-2,3.66-2.94,3.66C120.56,54.79,119.06,53.19,119.06,50.7Zm6.63,5.12a9.32,9.32,0,0,0,4.39,1.44,8.14,8.14,0,0,0,3.39-.74c.06,0,.08-.06.08-.11a.06.06,0,0,0-.06-.06.56.56,0,0,0-.15,0,6,6,0,0,1-2.1.42,9.83,9.83,0,0,1-4.5-1.26l-2.18-1.13a4.43,4.43,0,0,0,1.89-3.59,3.9,3.9,0,0,0-4.19-4A4.14,4.14,0,0,0,118.05,51a4,4,0,0,0,4.17,4.19,4.08,4.08,0,0,0,1.68-.36Z" style="fill:#1d1d1b"/><path d="M128.46,50.08c0-1.67,0-2,0-2.31s-.1-.53-.46-.61a2.19,2.19,0,0,0-.36,0s-.09,0-.09-.07.06-.08.17-.08c.49,0,1.13,0,1.23,0L130,47c.12,0,.17,0,.17.08a.08.08,0,0,1-.08.07l-.28,0c-.28,0-.37.24-.39.61s0,.64,0,2.31v1.49a3.27,3.27,0,0,0,.8,2.63,2,2,0,0,0,1.61.59,2.26,2.26,0,0,0,1.68-.77,4.14,4.14,0,0,0,.61-2.61V50.08c0-1.67,0-2,0-2.31s-.1-.53-.45-.61a2.22,2.22,0,0,0-.37,0,.07.07,0,0,1-.08-.07c0-.06.05-.08.17-.08.48,0,1.07,0,1.13,0s.57,0,.9,0c.11,0,.16,0,.16.08a.07.07,0,0,1-.08.07,1,1,0,0,0-.27,0c-.29.05-.37.24-.39.61s0,.64,0,2.31v1.14a4.14,4.14,0,0,1-1,3.19,3.09,3.09,0,0,1-2.19.78,3.3,3.3,0,0,1-2.2-.75,3.56,3.56,0,0,1-.93-2.81Z" style="fill:#1d1d1b"/><path d="M137.94,50.08c0-1.67,0-2,0-2.31s-.1-.53-.46-.61a2,2,0,0,0-.36,0,.07.07,0,0,1-.08-.07c0-.06.05-.08.17-.08.48,0,1.15,0,1.2,0h2.45a2.84,2.84,0,0,0,.45,0c.06,0,.1-.05.15-.05s0,0,0,.09-.06.2-.09.5c0,.11,0,.58,0,.71s0,.12-.08.12-.08-.06-.08-.14a1,1,0,0,0-.07-.39c-.07-.17-.18-.3-.75-.36-.18,0-1.35,0-1.47,0s-.06,0-.06.11v2.94c0,.07,0,.1.06.1s1.45,0,1.7,0,.41,0,.5-.15.12-.13.16-.13.06,0,.06.08-.06.24-.09.6,0,.6,0,.68,0,.2-.08.2-.07,0-.07-.09a1.2,1.2,0,0,0,0-.36c-.05-.14-.14-.32-.56-.37s-1.34-.05-1.52-.05-.08,0-.08.07V52c0,.36,0,1.6,0,1.83,0,.73.2.87,1.24.87a3,3,0,0,0,1-.12c.28-.11.41-.33.48-.76,0-.12.05-.16.1-.16s.06.08.06.16-.08.81-.13,1-.17.28-.58.28c-1.62,0-2.33-.07-2.64-.07l-1,0c-.12,0-.17,0-.17-.08a.07.07,0,0,1,.08-.07,1.65,1.65,0,0,0,.32,0c.21,0,.27-.27.31-.58a23.12,23.12,0,0,0,.06-2.32Z" style="fill:#1d1d1b"/><path d="M1,62.87c0-1.66,0-2,0-2.3S.88,60,.52,60a1.37,1.37,0,0,0-.36,0s-.08,0-.08-.06.05-.09.17-.09c.48,0,1.15,0,1.2,0,.22,0,2.38,0,2.63,0a2.55,2.55,0,0,0,.47,0c.06,0,.1-.06.15-.06s.06,0,.06.09,0,.21-.09.5c0,.11,0,.58,0,.71s0,.11-.08.11-.08,0-.08-.12a1.22,1.22,0,0,0-.09-.41.84.84,0,0,0-.73-.34L2,60.21c-.07,0-.1,0-.1.12v2.94c0,.07,0,.1.07.1H3.82c.26,0,.4-.06.49-.2s.08-.1.12-.1.05,0,.05.08-.05.25-.08.6-.05.64-.05.72,0,.2-.07.2-.07-.05-.07-.1a3.48,3.48,0,0,0-.07-.38.63.63,0,0,0-.55-.39c-.27,0-1.43,0-1.62,0s-.07,0-.07.1v.9c0,1,0,1.87.05,2.32s.1.54.42.59l.48,0c.06,0,.08,0,.08.06s-.05.09-.17.09c-.58,0-1.25,0-1.31,0l-1,0c-.12,0-.17,0-.17-.09s0-.06.08-.06a1.65,1.65,0,0,0,.32,0c.21,0,.27-.28.31-.59S1,65.78,1,64.75Z" style="fill:#1d1d1b"/><path d="M10.41,58.33c.06.1,0,.13,0,.13a1.5,1.5,0,0,0-.32,0,6.64,6.64,0,0,0-1.62.45L8.27,59a.06.06,0,0,1,0-.06s0-.06.07-.09c.39-.27,1.38-.86,1.45-.9s.25-.14.3-.14.05,0,.11.09S10.3,58.12,10.41,58.33ZM7.32,62.87c0-1.66,0-2,0-2.3S7.19,60,6.84,60a1.47,1.47,0,0,0-.36,0c-.05,0-.09,0-.09-.06s.05-.09.17-.09c.48,0,1.15,0,1.21,0s2.2,0,2.44,0a3.17,3.17,0,0,0,.46,0c.05,0,.1,0,.15,0s0,0,0,.09,0,.21-.08.5c0,.11,0,.58-.06.71s0,.11-.07.11-.09,0-.09-.13a1.23,1.23,0,0,0-.06-.39c-.08-.17-.18-.3-.76-.36-.18,0-1.34,0-1.46,0s-.06,0-.06.1v3c0,.08,0,.11.06.11s1.45,0,1.7,0,.4-.05.5-.15.12-.14.16-.14,0,0,0,.08,0,.25-.08.6,0,.61,0,.68,0,.2-.07.2a.08.08,0,0,1-.08-.09,1.14,1.14,0,0,0,0-.35c0-.15-.14-.33-.55-.38s-1.35,0-1.53,0a.06.06,0,0,0-.07.07v.94c0,.37,0,1.6,0,1.83,0,.73.19.87,1.23.87a3,3,0,0,0,1-.12c.28-.11.4-.32.48-.76,0-.12,0-.16.09-.16s.07.08.07.16-.09.81-.14,1-.16.28-.58.28c-1.61,0-2.32-.06-2.63-.06l-1,0c-.12,0-.17,0-.17-.09s0-.06.09-.06a1.87,1.87,0,0,0,.32,0c.21,0,.26-.28.31-.59s.05-1.29.05-2.32Z" style="fill:#1d1d1b"/><path d="M14.72,62.7c0-.82,0-1.9,0-2.27a.19.19,0,0,1,.13-.21,3,3,0,0,1,.7-.08A4.35,4.35,0,0,1,19,61.35a3.8,3.8,0,0,1,1,2.69,3.75,3.75,0,0,1-.85,2.55,3.58,3.58,0,0,1-2.54,1c-1.26,0-1.68-.22-1.82-.43a2.42,2.42,0,0,1-.11-.81c0-.2,0-1.18,0-2.31Zm-.89,2a23.12,23.12,0,0,1-.06,2.32c0,.31-.09.54-.31.59a1.65,1.65,0,0,1-.32,0c-.06,0-.08,0-.08.06s0,.09.17.09l1,0c.1,0,1.45.12,2.36.12a4.29,4.29,0,0,0,3.24-1.22,4.41,4.41,0,0,0,1.15-3A3.79,3.79,0,0,0,20,61c-1.27-1.31-3.22-1.22-4.27-1.22-.64,0-1.32,0-1.44,0s-.73,0-1.21,0c-.12,0-.17,0-.17.09s0,.06.08.06a1.5,1.5,0,0,1,.37,0c.35.07.43.24.46.6s0,.64,0,2.3Z" style="fill:#1d1d1b"/><path d="M26.28,58.33c0,.1,0,.13-.05.13a1.47,1.47,0,0,0-.32,0,6.64,6.64,0,0,0-1.62.45l-.16.05a.06.06,0,0,1-.05-.06s0-.06.07-.09c.39-.27,1.38-.86,1.45-.9s.25-.14.3-.14.06,0,.11.09S26.16,58.12,26.28,58.33Zm-3.1,4.54c0-1.66,0-2,0-2.3s-.11-.53-.46-.6a1.37,1.37,0,0,0-.36,0s-.08,0-.08-.06,0-.09.17-.09c.48,0,1.15,0,1.2,0s2.2,0,2.44,0a2.85,2.85,0,0,0,.46,0c.06,0,.1,0,.15,0s.05,0,.05.09-.06.21-.09.5c0,.11,0,.58-.05.71s0,.11-.08.11-.08,0-.08-.13a1,1,0,0,0-.07-.39c-.07-.17-.18-.3-.76-.36-.18,0-1.34,0-1.46,0s-.06,0-.06.1v3c0,.08,0,.11.06.11s1.45,0,1.7,0,.41-.05.5-.15.12-.14.16-.14.05,0,.05.08-.05.25-.08.6,0,.61,0,.68,0,.2-.08.2-.07,0-.07-.09a.92.92,0,0,0-.05-.35c0-.15-.13-.33-.55-.38s-1.34,0-1.53,0a.06.06,0,0,0-.07.07v.94c0,.37,0,1.6,0,1.83,0,.73.19.87,1.24.87a3,3,0,0,0,1-.12c.28-.11.41-.32.48-.76,0-.12,0-.16.1-.16s.06.08.06.16a8.78,8.78,0,0,1-.14,1c-.07.28-.16.28-.57.28-1.61,0-2.33-.06-2.64-.06l-1,0c-.12,0-.17,0-.17-.09s0-.06.08-.06a1.75,1.75,0,0,0,.32,0c.21,0,.27-.28.31-.59s.05-1.29.05-2.32Z" style="fill:#1d1d1b"/><path d="M30.54,60.31a.13.13,0,0,1,.09-.12,2.69,2.69,0,0,1,.71-.07c1.15,0,1.85.8,1.85,2.14a2,2,0,0,1-.65,1.64,1.4,1.4,0,0,1-.8.2,2.86,2.86,0,0,1-1.12-.17.14.14,0,0,1-.08-.13Zm-.85,4.44c0,1,0,1.87-.05,2.32s-.1.54-.31.59a1.87,1.87,0,0,1-.32,0c-.07,0-.09,0-.09.06s.06.09.17.09l1,0s.72,0,1.31,0c.12,0,.17,0,.17-.09s0-.06-.09-.06l-.48,0c-.32,0-.38-.28-.41-.59a23.12,23.12,0,0,1-.06-2.32V64.5a.08.08,0,0,1,.08-.09l1.31,0a.19.19,0,0,1,.14.07c.21.28.71,1,1.16,1.58a5.66,5.66,0,0,0,1.44,1.57,2.19,2.19,0,0,0,1.14.2h.76c.19,0,.26,0,.26-.09s0-.06-.1-.06a2.67,2.67,0,0,1-.41,0A2.32,2.32,0,0,1,35,66.9c-.61-.66-1.34-1.61-2.22-2.73a3.28,3.28,0,0,0,1.3-2.47,1.86,1.86,0,0,0-.74-1.45,3.33,3.33,0,0,0-2-.47c-.33,0-1.14,0-1.26,0s-.73,0-1.21,0c-.11,0-.17,0-.17.09s0,.06.09.06a1.42,1.42,0,0,1,.36,0c.35.07.44.24.46.6s0,.64,0,2.3Z" style="fill:#1d1d1b"/><path d="M38.34,64.32s-.05,0,0-.08l.94-2.88c0-.16.11-.16.16,0l1,2.88c0,.05,0,.08,0,.08Zm-1.49,2.35c-.19.54-.41.94-.9,1l-.31,0s-.09,0-.09.06.06.09.2.09c.5,0,1.09,0,1.21,0l.83,0c.09,0,.16,0,.16-.09s0-.06-.11-.06h-.11c-.18,0-.4-.1-.4-.31a2.15,2.15,0,0,1,.15-.72l.64-1.89a.11.11,0,0,1,.11-.08h2.29s.07,0,.1.06l1,2.63c.06.17,0,.27-.07.29s-.07,0-.07.07.12.07.32.08c.73,0,1.51,0,1.67,0s.22,0,.22-.09,0-.06-.11-.06a1.47,1.47,0,0,1-.43-.06c-.22-.07-.53-.24-.91-1.19-.65-1.62-2.33-6-2.49-6.43s-.17-.39-.23-.39-.11.07-.24.42Z" style="fill:#1d1d1b"/><path d="M46.1,64.78c0,1.56,0,2.25.23,2.44s.45.24,1.28.24c.57,0,1,0,1.29-.32a1.37,1.37,0,0,0,.28-.64c0-.08,0-.14.1-.14s.06,0,.06.16a6.29,6.29,0,0,1-.16,1.07c-.07.25-.1.29-.67.29-1.54,0-2.24-.06-2.86-.06l-1,0c-.12,0-.18,0-.18-.09s0-.06.09-.06a1.75,1.75,0,0,0,.32,0c.21,0,.27-.28.31-.59s.05-1.29.05-2.32V62.87c0-1.66,0-2,0-2.3s-.11-.53-.46-.6a1.37,1.37,0,0,0-.36,0s-.09,0-.09-.06.06-.09.18-.09c.48,0,1.15,0,1.2,0s.83,0,1.15,0c.12,0,.17,0,.17.09s0,.06-.08.06a1.63,1.63,0,0,0-.35,0c-.31.05-.4.23-.42.6s0,.64,0,2.3Z" style="fill:#1d1d1b"/><path d="M51.52,62.87c0-1.66,0-2,0-2.3S51.39,60,51,60a1.5,1.5,0,0,0-.37,0s-.08,0-.08-.06,0-.09.17-.09c.48,0,1.15,0,1.21,0s2.19,0,2.44,0a3.17,3.17,0,0,0,.46,0c.05,0,.09,0,.15,0s0,0,0,.09-.05.21-.09.5c0,.11,0,.58,0,.71s0,.11-.07.11-.09,0-.09-.13a1.23,1.23,0,0,0-.06-.39c-.08-.17-.18-.3-.76-.36-.18,0-1.34,0-1.46,0s-.07,0-.07.1v3c0,.08,0,.11.07.11s1.45,0,1.69,0,.41-.05.51-.15.11-.14.16-.14,0,0,0,.08,0,.25-.09.6,0,.61,0,.68,0,.2-.07.2-.08,0-.08-.09a1.14,1.14,0,0,0,0-.35c0-.15-.14-.33-.56-.38s-1.34,0-1.52,0a.07.07,0,0,0-.08.07v.94c0,.37,0,1.6,0,1.83,0,.73.2.87,1.24.87a3,3,0,0,0,1-.12c.27-.11.4-.32.48-.76,0-.12,0-.16.09-.16s.07.08.07.16-.09.81-.14,1-.16.28-.58.28c-1.61,0-2.32-.06-2.63-.06l-1,0c-.12,0-.17,0-.17-.09s0-.06.09-.06a1.65,1.65,0,0,0,.31,0c.22,0,.27-.28.32-.59s.05-1.29.05-2.32Z" style="fill:#1d1d1b"/><path d="M62.39,62.7c0-.82,0-1.9,0-2.27,0-.12,0-.17.13-.21a2.9,2.9,0,0,1,.69-.08,4.38,4.38,0,0,1,3.49,1.21,3.8,3.8,0,0,1,1,2.69,3.75,3.75,0,0,1-.85,2.55,3.58,3.58,0,0,1-2.54,1c-1.26,0-1.67-.22-1.81-.43a2.16,2.16,0,0,1-.12-.81c0-.2,0-1.18,0-2.31Zm-.9,2c0,1,0,1.87-.05,2.32s-.1.54-.31.59a1.75,1.75,0,0,1-.32,0c-.06,0-.08,0-.08.06s.05.09.17.09l1,0c.11,0,1.45.12,2.37.12a4.28,4.28,0,0,0,3.23-1.22,4.36,4.36,0,0,0,1.15-3,3.83,3.83,0,0,0-1-2.71c-1.27-1.31-3.22-1.22-4.28-1.22-.64,0-1.31,0-1.44,0s-.72,0-1.2,0c-.12,0-.18,0-.18.09s0,.06.09.06A1.37,1.37,0,0,1,61,60c.35.07.44.24.46.6s0,.64,0,2.3Z" style="fill:#1d1d1b"/><path d="M71.28,62.87c0-1.66,0-2,0-2.3s-.1-.53-.46-.6a1.37,1.37,0,0,0-.36,0s-.08,0-.08-.06.05-.09.17-.09c.48,0,1.15,0,1.2,0s2.2,0,2.44,0a3.18,3.18,0,0,0,.47,0c.05,0,.09,0,.14,0s0,0,0,.09-.06.21-.09.5c0,.11,0,.58,0,.71s0,.11-.07.11-.09,0-.09-.13a1.23,1.23,0,0,0-.06-.39c-.08-.17-.19-.3-.76-.36-.18,0-1.35,0-1.46,0s-.07,0-.07.1v3c0,.08,0,.11.07.11s1.45,0,1.69,0,.41-.05.5-.15.12-.14.16-.14.06,0,.06.08-.06.25-.09.6,0,.61,0,.68,0,.2-.08.2-.07,0-.07-.09a1.14,1.14,0,0,0,0-.35c0-.15-.14-.33-.56-.38s-1.34,0-1.52,0-.08,0-.08.07v.94c0,.37,0,1.6,0,1.83,0,.73.19.87,1.24.87a2.94,2.94,0,0,0,1-.12c.28-.11.41-.32.48-.76,0-.12,0-.16.1-.16s.06.08.06.16a8.78,8.78,0,0,1-.14,1c-.07.28-.16.28-.57.28-1.61,0-2.33-.06-2.64-.06l-1,0c-.12,0-.17,0-.17-.09s0-.06.08-.06a1.65,1.65,0,0,0,.32,0c.22,0,.27-.28.31-.59a23.12,23.12,0,0,0,.06-2.32Z" style="fill:#1d1d1b"/><path d="M82.15,64.78c0,1.56,0,2.25.23,2.44s.45.24,1.28.24c.57,0,1,0,1.29-.32a1.37,1.37,0,0,0,.28-.64c0-.08,0-.14.09-.14s.07,0,.07.16a7.51,7.51,0,0,1-.16,1.07c-.07.25-.11.29-.67.29-1.54,0-2.24-.06-2.86-.06l-1,0c-.11,0-.17,0-.17-.09s0-.06.09-.06a1.87,1.87,0,0,0,.32,0c.21,0,.26-.28.31-.59s0-1.29,0-2.32V62.87c0-1.66,0-2,0-2.3s-.11-.53-.46-.6a1.42,1.42,0,0,0-.36,0s-.09,0-.09-.06.06-.09.17-.09c.48,0,1.16,0,1.21,0s.83,0,1.15,0c.12,0,.17,0,.17.09s0,.06-.09.06a1.61,1.61,0,0,0-.34,0c-.32.05-.4.23-.42.6s0,.64,0,2.3Z" style="fill:#1d1d1b"/><path d="M88.39,64.32s-.06,0,0-.08l.94-2.88c.06-.16.11-.16.17,0l1,2.88c0,.05,0,.08,0,.08ZM86.9,66.67c-.2.54-.41.94-.9,1l-.31,0c-.06,0-.1,0-.1.06s.06.09.2.09c.51,0,1.09,0,1.21,0l.84,0c.09,0,.15,0,.15-.09s0-.06-.1-.06h-.11c-.18,0-.41-.1-.41-.31a2.15,2.15,0,0,1,.15-.72l.64-1.89a.11.11,0,0,1,.11-.08h2.3a.09.09,0,0,1,.09.06l1,2.63c.06.17,0,.27-.06.29s-.08,0-.08.07.12.07.32.08c.74,0,1.52,0,1.68,0s.21,0,.21-.09,0-.06-.11-.06a1.45,1.45,0,0,1-.42-.06c-.23-.07-.54-.24-.92-1.19-.65-1.62-2.33-6-2.48-6.43s-.17-.39-.24-.39-.11.07-.23.42Z" style="fill:#1d1d1b"/><path d="M94.63,62.87c0-1.66,0-2,0-2.3s-.11-.53-.46-.6a1.47,1.47,0,0,0-.36,0c-.05,0-.09,0-.09-.06s0-.09.17-.09c.48,0,1.13,0,1.23,0s.73,0,1.05,0c.12,0,.17,0,.17.09s0,.06-.08.06A1.09,1.09,0,0,0,96,60c-.29,0-.37.23-.39.6s0,.64,0,2.3v1.5a3.29,3.29,0,0,0,.8,2.64,2.08,2.08,0,0,0,1.61.58,2.25,2.25,0,0,0,1.67-.76,4.17,4.17,0,0,0,.62-2.62V62.87c0-1.66,0-2,0-2.3s-.11-.53-.46-.6a1.47,1.47,0,0,0-.36,0s-.09,0-.09-.06.06-.09.17-.09c.48,0,1.07,0,1.13,0s.58,0,.9,0c.12,0,.17,0,.17.09s0,.06-.09.06a.74.74,0,0,0-.26,0c-.29.05-.37.23-.4.6s0,.64,0,2.3V64a4.18,4.18,0,0,1-1,3.19,3.13,3.13,0,0,1-2.2.79,3.28,3.28,0,0,1-2.19-.76,3.51,3.51,0,0,1-.93-2.81Z" style="fill:#1d1d1b"/><path d="M103.42,67.71c-.15-.07-.16-.12-.16-.41,0-.53,0-1,0-1.13s0-.17.09-.17.07,0,.07.12a1.94,1.94,0,0,0,0,.39,1.46,1.46,0,0,0,1.58,1.09,1.42,1.42,0,0,0,1.53-1.42c0-.73-.31-1.16-1.23-1.91l-.48-.4c-1.13-.93-1.39-1.59-1.39-2.31a2,2,0,0,1,2.21-1.93,4.24,4.24,0,0,1,1,.11,1.92,1.92,0,0,0,.38,0c.08,0,.11,0,.11.08s0,.4,0,1.13c0,.17,0,.24-.07.24s-.08-.05-.09-.14a1.74,1.74,0,0,0-.14-.53c-.06-.12-.35-.56-1.33-.56a1.2,1.2,0,0,0-1.31,1.23c0,.61.3,1,1.3,1.79l.3.24c1.26,1,1.56,1.66,1.56,2.51a2.2,2.2,0,0,1-.91,1.77,2.8,2.8,0,0,1-1.61.45A3.3,3.3,0,0,1,103.42,67.71Z" style="fill:#1d1d1b"/><path d="M110.79,64.32s-.05,0,0-.08l.94-2.88c0-.16.1-.16.16,0l1,2.88c0,.05,0,.08,0,.08Zm-1.49,2.35c-.19.54-.41.94-.9,1l-.31,0s-.09,0-.09.06.06.09.2.09c.5,0,1.08,0,1.2,0l.83,0c.1,0,.16,0,.16-.09s0-.06-.1-.06h-.11c-.18,0-.4-.1-.4-.31a2.15,2.15,0,0,1,.15-.72l.64-1.89a.11.11,0,0,1,.1-.08H113a.09.09,0,0,1,.09.06l1,2.63c.07.17,0,.27-.06.29s-.08,0-.08.07.12.07.33.08c.73,0,1.51,0,1.67,0s.22,0,.22-.09,0-.06-.11-.06a1.47,1.47,0,0,1-.43-.06c-.22-.07-.53-.24-.92-1.19-.65-1.62-2.32-6-2.48-6.43s-.18-.39-.24-.39-.1.07-.23.42Z" style="fill:#1d1d1b"/><path d="M117.94,66.39c0,.88.13,1.16.41,1.25a2.56,2.56,0,0,0,.54.06s.08,0,.08.06-.06.09-.19.09c-.61,0-1,0-1.13,0s-.54,0-1,0c-.11,0-.18,0-.18-.09s0-.06.09-.06a1.62,1.62,0,0,0,.44-.06c.26-.08.32-.39.32-1.36V60.16c0-.41,0-.53.11-.53s.27.24.38.35l3.39,3.65c1.06,1.13,2.22,2.44,2.56,2.79L123.63,61c0-.7-.08-.93-.41-1a2.42,2.42,0,0,0-.53-.06c-.07,0-.08,0-.08-.07s.08-.08.21-.08c.48,0,1,0,1.11,0s.47,0,.91,0c.12,0,.19,0,.19.08s0,.07-.11.07a.77.77,0,0,0-.26,0c-.36.07-.4.3-.4.94l0,6.25c0,.71,0,.76-.09.76s-.22-.11-.78-.68c-.12-.11-1.66-1.68-2.79-2.89s-2.44-2.68-2.78-3.06Z" style="fill:#1d1d1b"/><path d="M128,66.39c0,.88.13,1.16.42,1.25a2.42,2.42,0,0,0,.53.06s.09,0,.09.06-.07.09-.2.09c-.6,0-1,0-1.13,0s-.54,0-1,0c-.11,0-.17,0-.17-.09s0-.06.09-.06a1.6,1.6,0,0,0,.43-.06c.27-.08.32-.39.32-1.36V60.16c0-.41,0-.53.12-.53s.27.24.37.35l3.39,3.65c1.06,1.13,2.22,2.44,2.57,2.79L133.74,61c0-.7-.09-.93-.42-1a2.4,2.4,0,0,0-.52-.06c-.07,0-.08,0-.08-.07s.08-.08.21-.08c.48,0,1,0,1.11,0s.46,0,.9,0c.12,0,.19,0,.19.08s0,.07-.12.07a.75.75,0,0,0-.25,0c-.35.07-.39.3-.39.94l0,6.25c0,.71,0,.76-.1.76s-.21-.11-.78-.68c-.12-.11-1.65-1.68-2.79-2.89s-2.44-2.68-2.78-3.06Z" style="fill:#1d1d1b"/><path d="M137.86,62.87c0-1.66,0-2,0-2.3s-.1-.53-.45-.6a1.5,1.5,0,0,0-.37,0s-.08,0-.08-.06,0-.09.17-.09c.48,0,1.15,0,1.2,0s2.2,0,2.45,0a2.84,2.84,0,0,0,.45,0c.06,0,.1,0,.16,0s0,0,0,.09-.06.21-.09.5c0,.11,0,.58-.05.71s0,.11-.08.11-.08,0-.08-.13a1.29,1.29,0,0,0-.07-.39c-.07-.17-.18-.3-.76-.36-.18,0-1.34,0-1.45,0s-.07,0-.07.1v3c0,.08,0,.11.07.11s1.44,0,1.69,0,.41-.05.5-.15.12-.14.16-.14.06,0,.06.08-.06.25-.09.6,0,.61,0,.68,0,.2-.08.2-.07,0-.07-.09a1.14,1.14,0,0,0,0-.35c0-.15-.14-.33-.56-.38s-1.34,0-1.52,0-.08,0-.08.07v.94c0,.37,0,1.6,0,1.83,0,.73.2.87,1.24.87a3,3,0,0,0,1-.12c.28-.11.41-.32.49-.76,0-.12,0-.16.09-.16s.06.08.06.16a8.78,8.78,0,0,1-.14,1c-.07.28-.15.28-.57.28-1.61,0-2.33-.06-2.64-.06l-1,0c-.12,0-.17,0-.17-.09s0-.06.08-.06a1.65,1.65,0,0,0,.32,0c.22,0,.27-.28.31-.59a23.12,23.12,0,0,0,.06-2.32Z" style="fill:#1d1d1b"/></svg>