<svg id="DocumentOfficielNePasModifierSVP" xmlns="http://www.w3.org/2000/svg" viewBox="0 0 246.61 127.56"><title>LogoLyon1Sig_CoulCmjnVecto</title><path d="M50.35,83.39A19.55,19.55,0,1,1,69.89,63.85,19.57,19.57,0,0,1,50.35,83.39Zm0-37.57a18,18,0,1,0,18,18,18,18,0,0,0-18-18Z" style="fill:#575756"/><path d="M50.35,86.31A22.46,22.46,0,1,1,72.81,63.85,22.48,22.48,0,0,1,50.35,86.31Zm0-44.11A21.65,21.65,0,1,0,72,63.85,21.67,21.67,0,0,0,50.35,42.2Z" style="fill:#e84e0f"/><path d="M50.35,92.23A28.39,28.39,0,1,1,78.74,63.85,28.42,28.42,0,0,1,50.35,92.23Zm0-52.72A24.34,24.34,0,1,0,74.69,63.85,24.37,24.37,0,0,0,50.35,39.51Z" style="fill:#f59c00"/><path d="M51.42,94.88A33.58,33.58,0,1,1,85,61.31,33.61,33.61,0,0,1,51.42,94.88Zm0-65.64A32.07,32.07,0,1,0,83.47,61.31a32.11,32.11,0,0,0-32-32.07Z" style="fill:#b23f06"/><path d="M51.87,97.34A36.44,36.44,0,1,1,88.3,60.9,36.49,36.49,0,0,1,51.87,97.34Zm0-71.35A34.92,34.92,0,1,0,86.78,60.9,35,35,0,0,0,51.87,26Z" style="fill:#758d9a"/><path d="M47.24,107.24a44.7,44.7,0,1,1,44.69-44.7,44.76,44.76,0,0,1-44.69,44.7Zm0-87.38A42.68,42.68,0,1,0,89.91,62.54,42.74,42.74,0,0,0,47.24,19.86Z" style="fill:#f9b000"/><path d="M55.21,119.71A44.46,44.46,0,1,1,99.67,75.25a44.51,44.51,0,0,1-44.46,44.46Zm0-88.11A43.65,43.65,0,1,0,98.86,75.25,43.71,43.71,0,0,0,55.21,31.6Z" style="fill:#ea5178"/><path d="M58.81,106.66C30.87,106.66,8.13,84.38,8.13,57S30.87,7.33,58.81,7.33,109.49,29.61,109.49,57s-22.74,49.67-50.68,49.67Zm0-98.52C31.32,8.14,9,30.05,9,57s22.37,48.87,49.86,48.87S108.68,83.93,108.68,57,86.31,8.14,58.81,8.14Z" style="fill:#ec6608"/><path d="M44.13,58.06v7h0a2,2,0,0,1-4,0h0V58.68H36.73V65.1a5.38,5.38,0,0,0,10.76,0v-7H44.13" style="fill:#575756"/><polyline points="52.4 71.64 52.4 62.25 48.97 62.25 48.97 74.89 57.08 74.89 57.08 71.64 52.4 71.64" style="fill:#575756"/><path d="M61.54,63.64a3.1,3.1,0,0,0,1.12-2.39,3.16,3.16,0,0,0-3.16-3.17H54V70.12h5.73a3.49,3.49,0,0,0,1.8-6.48m-3.28-2.93a.94.94,0,0,1,1,.91.92.92,0,0,1-1,.88h-.94V60.71Zm.15,6.5H57.29V65.49h1.14a.86.86,0,0,1,.92.86A.88.88,0,0,1,58.41,67.21Z" style="fill:#575756"/><path d="M50,60.47a2.4,2.4,0,0,1,0-4.8,2.28,2.28,0,0,1,1.24.36l1.82-3A5.83,5.83,0,0,0,50,52.18a5.89,5.89,0,1,0,5.89,5.89H52.41a2.4,2.4,0,0,1-2.4,2.4" style="fill:#575756"/><polyline points="100.27 83.16 100.27 44.73 107.78 44.73 107.78 76.47 125.21 76.47 125.21 83.16 100.27 83.16" style="fill:#575756"/><path d="M138,87.7a10,10,0,0,1-2.11,3.61,8.12,8.12,0,0,1-6,2.16h-2.76V87.16h1.62c2,0,2.81-.49,3.52-2.54l1.18-3.45L123.8,55h7.4L137,72.42,142.64,55H150L138,87.7" style="fill:#575756"/><path d="M173.08,80a11.63,11.63,0,0,1-8.74,3.46A11.49,11.49,0,0,1,155.65,80c-2.54-2.64-3.19-5.83-3.19-11s.65-8.26,3.19-10.91a11.52,11.52,0,0,1,8.69-3.45,11.66,11.66,0,0,1,8.74,3.45c2.54,2.65,3.19,5.83,3.19,10.91s-.65,8.31-3.19,11m-5.45-17.75A4.4,4.4,0,0,0,164.34,61a4.27,4.27,0,0,0-3.24,1.25c-1.46,1.45-1.62,3.88-1.62,6.8s.16,5.39,1.62,6.85a4.3,4.3,0,0,0,3.24,1.24,4.43,4.43,0,0,0,3.29-1.24c1.46-1.46,1.62-3.94,1.62-6.85S169.09,63.73,167.63,62.28Z" style="fill:#575756"/><path d="M199.31,83.16v-17c0-3.83-2.42-5.13-4.64-5.13S190,62.33,190,66.16v17h-7V55h6.86v2.59a9.61,9.61,0,0,1,7-2.91,9.14,9.14,0,0,1,6.64,2.48c2.27,2.27,2.86,4.91,2.86,8v18h-7" style="fill:#575756"/><polyline points="235.85 83.16 235.85 52.29 228.03 59.09 228.03 51.53 235.85 44.73 242.88 44.73 242.88 83.16 235.85 83.16" style="fill:#575756"/></svg>